<svg width="40" height="40" viewBox="0 0 40 40" fill="none" xmlns="http://www.w3.org/2000/svg">
<circle cx="20" cy="20" r="20" fill="#F7F7FF"/>
<mask id="mask0_33_2518" style="mask-type:alpha" maskUnits="userSpaceOnUse" x="8" y="8" width="24" height="24">
<rect x="8" y="8" width="24" height="24" fill="#D9D9D9"/>
</mask>
<g mask="url(#mask0_33_2518)">
<path d="M20 21C18.9 21 17.9583 20.6083 17.175 19.825C16.3917 19.0417 16 18.1 16 17V13.5C16 13.0833 16.146 12.7293 16.438 12.438C16.7293 12.146 17.0833 12 17.5 12C17.75 12 17.9877 12.0583 18.213 12.175C18.4377 12.2917 18.6167 12.4583 18.75 12.675C18.8833 12.4583 19.0627 12.2917 19.288 12.175C19.5127 12.0583 19.75 12 20 12C20.25 12 20.4877 12.0583 20.713 12.175C20.9377 12.2917 21.1167 12.4583 21.25 12.675C21.3833 12.4583 21.5627 12.2917 21.788 12.175C22.0127 12.0583 22.25 12 22.5 12C22.9167 12 23.2707 12.146 23.562 12.438C23.854 12.7293 24 13.0833 24 13.5V17C24 18.1 23.6083 19.0417 22.825 19.825C22.0417 20.6083 21.1 21 20 21ZM14 29C13.45 29 12.9793 28.8043 12.588 28.413C12.196 28.021 12 27.55 12 27V26.2C12 25.6333 12.146 25.1123 12.438 24.637C12.7293 24.1623 13.1167 23.8 13.6 23.55C14.6333 23.0333 15.6833 22.6457 16.75 22.387C17.8167 22.129 18.9 22 20 22C21.1 22 22.1833 22.129 23.25 22.387C24.3167 22.6457 25.3667 23.0333 26.4 23.55C26.8833 23.8 27.2707 24.1623 27.562 24.637C27.854 25.1123 28 25.6333 28 26.2V27C28 27.55 27.8043 28.021 27.413 28.413C27.021 28.8043 26.55 29 26 29H14Z" fill="#4464D9"/>
</g>
</svg>
