<svg width="10" height="10" viewBox="0 0 10 10" fill="none" xmlns="http://www.w3.org/2000/svg">
<path d="M4.99998 9.66671C4.81109 9.66671 4.65276 9.60282 4.52498 9.47504C4.3972 9.34726 4.33331 9.18893 4.33331 9.00004V5.66671H0.99998C0.811091 5.66671 0.652757 5.60282 0.52498 5.47504C0.397202 5.34726 0.333313 5.18893 0.333313 5.00004C0.333313 4.81115 0.397202 4.65282 0.52498 4.52504C0.652757 4.39726 0.811091 4.33337 0.99998 4.33337H4.33331V1.00004C4.33331 0.811152 4.3972 0.652818 4.52498 0.525041C4.65276 0.397263 4.81109 0.333374 4.99998 0.333374C5.18887 0.333374 5.3472 0.397263 5.47498 0.525041C5.60276 0.652818 5.66665 0.811152 5.66665 1.00004V4.33337H8.99998C9.18887 4.33337 9.3472 4.39726 9.47498 4.52504C9.60276 4.65282 9.66665 4.81115 9.66665 5.00004C9.66665 5.18893 9.60276 5.34726 9.47498 5.47504C9.3472 5.60282 9.18887 5.66671 8.99998 5.66671H5.66665V9.00004C5.66665 9.18893 5.60276 9.34726 5.47498 9.47504C5.3472 9.60282 5.18887 9.66671 4.99998 9.66671Z" fill="#4464D9"/>
</svg>
