<svg width="11" height="11" viewBox="0 0 11 11" fill="none" xmlns="http://www.w3.org/2000/svg">
<path d="M8.83346 2.99935L1.43762 10.416C1.27096 10.5827 1.07304 10.666 0.843872 10.666C0.614706 10.666 0.416789 10.5827 0.250122 10.416C0.0834554 10.2494 0.00012207 10.0514 0.00012207 9.82227C0.00012207 9.5931 0.0834554 9.39518 0.250122 9.22852L7.66679 1.83268H1.33346C1.09734 1.83268 0.899428 1.75282 0.739706 1.5931C0.579983 1.43338 0.500122 1.23546 0.500122 0.999349C0.500122 0.763238 0.579983 0.565321 0.739706 0.405599C0.899428 0.245877 1.09734 0.166016 1.33346 0.166016H9.66679C9.9029 0.166016 10.1008 0.245877 10.2605 0.405599C10.4203 0.565321 10.5001 0.763238 10.5001 0.999349V9.33268C10.5001 9.56879 10.4203 9.76671 10.2605 9.92643C10.1008 10.0862 9.9029 10.166 9.66679 10.166C9.43068 10.166 9.23276 10.0862 9.07304 9.92643C8.91332 9.76671 8.83346 9.56879 8.83346 9.33268V2.99935Z" fill="#0D1927"/>
</svg>
