<svg width="8" height="14" viewBox="0 0 8 14" fill="none" xmlns="http://www.w3.org/2000/svg">
<path d="M1.8167 13.0664L7.43337 7.46644C7.50003 7.39977 7.54714 7.32755 7.5747 7.24977C7.6027 7.17199 7.6167 7.08866 7.6167 6.99977C7.6167 6.91088 7.6027 6.82755 7.5747 6.74977C7.54714 6.67199 7.50003 6.59977 7.43337 6.53311L1.8167 0.916439C1.66114 0.760883 1.4667 0.683105 1.23337 0.683105C1.00003 0.683105 0.800033 0.766439 0.633366 0.933105C0.4667 1.09977 0.383366 1.29422 0.383366 1.51644C0.383366 1.73866 0.4667 1.93311 0.633366 2.09977L5.53337 6.99977L0.633366 11.8998C0.47781 12.0553 0.400033 12.2469 0.400033 12.4744C0.400033 12.7024 0.483366 12.8998 0.650033 13.0664C0.816699 13.2331 1.01114 13.3164 1.23337 13.3164C1.45559 13.3164 1.65003 13.2331 1.8167 13.0664Z" fill="#66708F"/>
</svg>
