<svg width="12" height="12" viewBox="0 0 12 12" fill="none" xmlns="http://www.w3.org/2000/svg">
<mask id="mask0_33_2783" style="mask-type:alpha" maskUnits="userSpaceOnUse" x="0" y="0" width="12" height="12">
<rect width="12" height="12" fill="#D9D9D9"/>
</mask>
<g mask="url(#mask0_33_2783)">
<path d="M2.00024 11.9996C1.72524 11.9996 1.48991 11.9018 1.29424 11.7061C1.09824 11.5101 1.00024 11.2746 1.00024 10.9996C1.00024 10.7246 1.09824 10.4891 1.29424 10.2931C1.48991 10.0974 1.72524 9.9996 2.00024 9.9996H10.0002C10.2752 9.9996 10.5107 10.0974 10.7067 10.2931C10.9024 10.4891 11.0002 10.7246 11.0002 10.9996C11.0002 11.2746 10.9024 11.5101 10.7067 11.7061C10.5107 11.9018 10.2752 11.9996 10.0002 11.9996H2.00024ZM2.50024 8.9996C2.35858 8.9996 2.23974 8.9516 2.14374 8.8556C2.04808 8.75993 2.00024 8.64127 2.00024 8.4996V7.3371C2.00024 7.27044 2.01274 7.20577 2.03774 7.1431C2.06274 7.08077 2.10024 7.0246 2.15024 6.9746L6.52524 2.5996L8.40024 4.4746L4.02524 8.8496C3.97524 8.8996 3.91908 8.9371 3.85674 8.9621C3.79408 8.9871 3.72941 8.9996 3.66274 8.9996H2.50024ZM8.96274 3.9246L7.08775 2.0496L7.98775 1.1496C8.07941 1.0496 8.19608 1.0016 8.33774 1.0056C8.47941 1.00994 8.59608 1.05794 8.68775 1.1496L9.86275 2.3246C9.95441 2.41627 10.0002 2.53094 10.0002 2.6686C10.0002 2.80594 9.95441 2.9246 9.86275 3.0246L8.96274 3.9246Z" fill="white"/>
</g>
</svg>
