<svg width="54" height="54" viewBox="0 0 54 54" fill="none" xmlns="http://www.w3.org/2000/svg">
<path d="M23.2663 31.8006L17.533 26.0673C17.0441 25.5784 16.4219 25.334 15.6663 25.334C14.9108 25.334 14.2886 25.5784 13.7997 26.0673C13.3108 26.5562 13.0663 27.1784 13.0663 27.934C13.0663 28.6895 13.3108 29.3118 13.7997 29.8006L21.3997 37.4007C21.933 37.934 22.5552 38.2006 23.2663 38.2006C23.9775 38.2006 24.5997 37.934 25.133 37.4007L40.1997 22.334C40.6886 21.8451 40.933 21.2229 40.933 20.4673C40.933 19.7118 40.6886 19.0895 40.1997 18.6006C39.7108 18.1118 39.0886 17.8673 38.333 17.8673C37.5774 17.8673 36.9552 18.1118 36.4663 18.6006L23.2663 31.8006ZM26.9997 53.6673C23.3108 53.6673 19.8441 52.9673 16.5997 51.5673C13.3552 50.1673 10.533 48.2673 8.13301 45.8673C5.73301 43.4673 3.83301 40.6451 2.43301 37.4007C1.03301 34.1562 0.333008 30.6895 0.333008 27.0006C0.333008 23.3118 1.03301 19.8451 2.43301 16.6006C3.83301 13.3562 5.73301 10.534 8.13301 8.13398C10.533 5.73398 13.3552 3.83398 16.5997 2.43398C19.8441 1.03398 23.3108 0.333984 26.9997 0.333984C30.6886 0.333984 34.1552 1.03398 37.3997 2.43398C40.6441 3.83398 43.4663 5.73398 45.8663 8.13398C48.2663 10.534 50.1663 13.3562 51.5663 16.6006C52.9663 19.8451 53.6663 23.3118 53.6663 27.0006C53.6663 30.6895 52.9663 34.1562 51.5663 37.4007C50.1663 40.6451 48.2663 43.4673 45.8663 45.8673C43.4663 48.2673 40.6441 50.1673 37.3997 51.5673C34.1552 52.9673 30.6886 53.6673 26.9997 53.6673Z" fill="#48BD69"/>
</svg>
