<svg width="36" height="36" viewBox="0 0 36 36" fill="none" xmlns="http://www.w3.org/2000/svg">
<path d="M17.2262 0.945073C17.6263 0.45639 18.3737 0.456391 18.7738 0.945073L21.1787 3.88257C21.4507 4.21472 21.9043 4.33625 22.3058 4.18457L25.8574 2.84312C26.4482 2.61996 27.0954 2.99362 27.1976 3.61688L27.8116 7.36332C27.881 7.78693 28.2131 8.11898 28.6367 8.18841L32.3831 8.80245C33.0064 8.9046 33.38 9.55179 33.1569 10.1426L31.8154 13.6942C31.6637 14.0957 31.7853 14.5493 32.1174 14.8213L35.0549 17.2262C35.5436 17.6263 35.5436 18.3737 35.0549 18.7738L32.1174 21.1787C31.7853 21.4507 31.6637 21.9043 31.8154 22.3058L33.1569 25.8574C33.38 26.4482 33.0064 27.0954 32.3831 27.1976L28.6367 27.8116C28.2131 27.881 27.881 28.2131 27.8116 28.6367L27.1976 32.3831C27.0954 33.0064 26.4482 33.38 25.8574 33.1569L22.3058 31.8154C21.9043 31.6637 21.4507 31.7853 21.1787 32.1174L18.7738 35.0549C18.3737 35.5436 17.6263 35.5436 17.2262 35.0549L14.8213 32.1174C14.5493 31.7853 14.0957 31.6637 13.6942 31.8154L10.1426 33.1569C9.55179 33.38 8.9046 33.0064 8.80245 32.3831L8.18841 28.6367C8.11898 28.2131 7.78693 27.881 7.36332 27.8116L3.61688 27.1976C2.99362 27.0954 2.61996 26.4482 2.84312 25.8574L4.18457 22.3058C4.33625 21.9043 4.21472 21.4507 3.88257 21.1787L0.945073 18.7738C0.45639 18.3737 0.456391 17.6263 0.945073 17.2262L3.88257 14.8213C4.21472 14.5493 4.33625 14.0957 4.18457 13.6942L2.84312 10.1426C2.61996 9.55179 2.99362 8.9046 3.61688 8.80245L7.36332 8.18841C7.78693 8.11898 8.11898 7.78693 8.18841 7.36332L8.80245 3.61688C8.9046 2.99362 9.55179 2.61996 10.1426 2.84312L13.6942 4.18457C14.0957 4.33625 14.5493 4.21472 14.8213 3.88257L17.2262 0.945073Z" fill="#0B484B"/>
</svg>
