<svg width="20" height="21" viewBox="0 0 20 21" fill="none" xmlns="http://www.w3.org/2000/svg">
<path d="M8.24984 12.9173V14.084C8.24984 14.5701 8.41998 14.9833 8.76025 15.3236C9.10053 15.6638 9.51373 15.834 9.99984 15.834C10.4859 15.834 10.8991 15.6638 11.2394 15.3236C11.5797 14.9833 11.7498 14.5701 11.7498 14.084V12.9173H12.9165C13.4026 12.9173 13.8158 12.7472 14.1561 12.4069C14.4964 12.0666 14.6665 11.6534 14.6665 11.1673C14.6665 10.6812 14.4964 10.268 14.1561 9.92773C13.8158 9.58746 13.4026 9.41732 12.9165 9.41732H11.7498V8.25065C11.7498 7.76454 11.5797 7.35134 11.2394 7.01107C10.8991 6.67079 10.4859 6.50065 9.99984 6.50065C9.51373 6.50065 9.10053 6.67079 8.76025 7.01107C8.41998 7.35134 8.24984 7.76454 8.24984 8.25065V9.41732H7.08317C6.59706 9.41732 6.18386 9.58746 5.84359 9.92773C5.50331 10.268 5.33317 10.6812 5.33317 11.1673C5.33317 11.6534 5.50331 12.0666 5.84359 12.4069C6.18386 12.7472 6.59706 12.9173 7.08317 12.9173H8.24984ZM2.99984 20.5006C2.35817 20.5006 1.80886 20.2722 1.35192 19.8152C0.894976 19.3583 0.666504 18.809 0.666504 18.1673V7.66732C0.666504 7.29787 0.749143 6.94787 0.914421 6.61732C1.0797 6.28676 1.30817 6.01454 1.59984 5.80065L8.59984 0.550651C9.00817 0.23954 9.47484 0.0839844 9.99984 0.0839844C10.5248 0.0839844 10.9915 0.23954 11.3998 0.550651L18.3998 5.80065C18.6915 6.01454 18.92 6.28676 19.0853 6.61732C19.2505 6.94787 19.3332 7.29787 19.3332 7.66732V18.1673C19.3332 18.809 19.1047 19.3583 18.6478 19.8152C18.1908 20.2722 17.6415 20.5006 16.9998 20.5006H2.99984ZM2.99984 18.1673H16.9998V7.66732L9.99984 2.41732L2.99984 7.66732V18.1673Z" fill="#172331"/>
</svg>
