<svg width="28" height="28" viewBox="0 0 28 28" fill="none" xmlns="http://www.w3.org/2000/svg">
<mask id="mask0_33_2193" style="mask-type:alpha" maskUnits="userSpaceOnUse" x="0" y="0" width="28" height="28">
<rect width="28" height="28" fill="#D9D9D9"/>
</mask>
<g mask="url(#mask0_33_2193)">
<rect x="2" y="4.5" width="24" height="19" rx="2" fill="#4464D9"/>
<mask id="mask1_33_2193" style="mask-type:alpha" maskUnits="userSpaceOnUse" x="8" y="9" width="12" height="13">
<rect x="8" y="9.625" width="12" height="12" fill="#D9D9D9"/>
</mask>
<g mask="url(#mask1_33_2193)">
<path d="M11 18.125C10.8583 18.125 10.7395 18.077 10.6435 17.981C10.5478 17.8853 10.5 17.7667 10.5 17.625V15.1125C10.5 14.9708 10.5478 14.8542 10.6435 14.7625C10.7395 14.6708 10.8583 14.625 11 14.625C11.1417 14.625 11.2605 14.6728 11.3565 14.7685C11.4522 14.8645 11.5 14.9833 11.5 15.125V17.6375C11.5 17.7792 11.4522 17.8958 11.3565 17.9875C11.2605 18.0792 11.1417 18.125 11 18.125ZM14 18.125C13.8583 18.125 13.7397 18.077 13.644 17.981C13.548 17.8853 13.5 17.7667 13.5 17.625V15.1125C13.5 14.9708 13.548 14.8542 13.644 14.7625C13.7397 14.6708 13.8583 14.625 14 14.625C14.1417 14.625 14.2605 14.6728 14.3565 14.7685C14.4522 14.8645 14.5 14.9833 14.5 15.125V17.6375C14.5 17.7792 14.4522 17.8958 14.3565 17.9875C14.2605 18.0792 14.1417 18.125 14 18.125ZM9.4875 20.125C9.34583 20.125 9.22917 20.077 9.1375 19.981C9.04583 19.8853 9 19.7667 9 19.625C9 19.4833 9.048 19.3647 9.144 19.269C9.23967 19.173 9.35833 19.125 9.5 19.125H18.5125C18.6542 19.125 18.7708 19.173 18.8625 19.269C18.9542 19.3647 19 19.4833 19 19.625C19 19.7667 18.952 19.8853 18.856 19.981C18.7603 20.077 18.6417 20.125 18.5 20.125H9.4875ZM17 18.125C16.8583 18.125 16.7397 18.077 16.644 17.981C16.548 17.8853 16.5 17.7667 16.5 17.625V15.1125C16.5 14.9708 16.548 14.8542 16.644 14.7625C16.7397 14.6708 16.8583 14.625 17 14.625C17.1417 14.625 17.2603 14.6728 17.356 14.7685C17.452 14.8645 17.5 14.9833 17.5 15.125V17.6375C17.5 17.7792 17.452 17.8958 17.356 17.9875C17.2603 18.0792 17.1417 18.125 17 18.125ZM14.45 10.35L18.6625 12.45C18.7708 12.5083 18.8542 12.5895 18.9125 12.6935C18.9708 12.7978 19 12.9125 19 13.0375C19 13.2042 18.9397 13.3437 18.819 13.456C18.698 13.5687 18.5542 13.625 18.3875 13.625H9.625C9.45833 13.625 9.3125 13.5687 9.1875 13.456C9.0625 13.3437 9 13.2042 9 13.0375C9 12.9125 9.02717 12.7978 9.0815 12.6935C9.1355 12.5895 9.22083 12.5125 9.3375 12.4625L13.55 10.35C13.6917 10.2833 13.8417 10.25 14 10.25C14.1583 10.25 14.3083 10.2833 14.45 10.35ZM11.225 12.625H16.775L14 11.25L11.225 12.625Z" fill="white"/>
</g>
<path d="M2 6.5C2 5.39543 2.89543 4.5 4 4.5H24C25.1046 4.5 26 5.39543 26 6.5V8.5H2V6.5Z" fill="#799FFF"/>
</g>
</svg>
