<svg width="20" height="20" viewBox="0 0 20 20" fill="none" xmlns="http://www.w3.org/2000/svg">
<mask id="mask0_33_1557" style="mask-type:alpha" maskUnits="userSpaceOnUse" x="0" y="0" width="20" height="20">
<rect width="20" height="20" fill="#D9D9D9"/>
</mask>
<g mask="url(#mask0_33_1557)">
<path d="M10 17.4998C7.90278 17.4998 6.12833 16.774 4.67667 15.3223C3.22556 13.8712 2.5 12.0971 2.5 9.99984C2.5 8.08317 3.125 6.41984 4.375 5.00984C5.625 3.60039 7.22222 2.77762 9.16667 2.5415C9.51389 2.49984 9.78472 2.62484 9.97917 2.9165C10.1736 3.20817 10.1667 3.51373 9.95833 3.83317C9.72222 4.19428 9.545 4.57623 9.42667 4.979C9.30889 5.38178 9.25 5.80539 9.25 6.24984C9.25 7.49984 9.6875 8.56234 10.5625 9.43734C11.4375 10.3123 12.5 10.7498 13.75 10.7498C14.1806 10.7498 14.6078 10.6873 15.0317 10.5623C15.455 10.4373 15.8333 10.2637 16.1667 10.0415C16.4583 9.84706 16.7569 9.8365 17.0625 10.0098C17.3681 10.1837 17.5 10.4582 17.4583 10.8332C17.2639 12.7498 16.4481 14.3401 15.0108 15.604C13.5731 16.8679 11.9028 17.4998 10 17.4998ZM10 15.8332C11.2222 15.8332 12.3194 15.4965 13.2917 14.8232C14.2639 14.1493 14.9722 13.2707 15.4167 12.1873C15.1389 12.2568 14.8611 12.3123 14.5833 12.354C14.3056 12.3957 14.0278 12.4165 13.75 12.4165C12.0417 12.4165 10.5867 11.8159 9.385 10.6148C8.18389 9.41317 7.58333 7.95817 7.58333 6.24984C7.58333 5.97206 7.60417 5.69428 7.64583 5.4165C7.6875 5.13873 7.74306 4.86095 7.8125 4.58317C6.72917 5.02762 5.85083 5.73595 5.1775 6.70817C4.50361 7.68039 4.16667 8.77762 4.16667 9.99984C4.16667 11.6109 4.73611 12.9859 5.875 14.1248C7.01389 15.2637 8.38889 15.8332 10 15.8332Z" fill="#78879A"/>
</g>
</svg>
