<svg width="10" height="7" viewBox="0 0 10 7" fill="none" xmlns="http://www.w3.org/2000/svg">
<path d="M5.00003 6.4587C4.88891 6.4587 4.78475 6.44134 4.68753 6.40662C4.5903 6.3719 4.50003 6.31287 4.41669 6.22954L0.562526 2.37537C0.409748 2.22259 0.336831 2.03162 0.343776 1.80245C0.35072 1.57329 0.430581 1.38232 0.583359 1.22954C0.736137 1.07676 0.930581 1.00037 1.16669 1.00037C1.4028 1.00037 1.59725 1.07676 1.75003 1.22954L5.00003 4.47954L8.27086 1.2087C8.42364 1.05593 8.61461 0.98301 8.84377 0.989955C9.07294 0.996899 9.26391 1.07676 9.41669 1.22954C9.56947 1.38232 9.64586 1.57676 9.64586 1.81287C9.64586 2.04898 9.56947 2.24343 9.41669 2.3962L5.58336 6.22954C5.50003 6.31287 5.40975 6.3719 5.31253 6.40662C5.2153 6.44134 5.11114 6.4587 5.00003 6.4587Z" fill="#1C1B1F"/>
</svg>
