<svg width="21" height="20" viewBox="0 0 21 20" fill="none" xmlns="http://www.w3.org/2000/svg">
<path d="M19.205 6.01002L12.655 0.770018C11.375 -0.249982 9.375 -0.259982 8.105 0.760018L1.555 6.01002C0.615001 6.76002 0.0450011 8.26002 0.245001 9.44002L1.505 16.98C1.795 18.67 3.365 20 5.075 20H15.675C17.365 20 18.965 18.64 19.255 16.97L20.515 9.43002C20.695 8.26002 20.125 6.76002 19.205 6.01002ZM11.125 16C11.125 16.41 10.785 16.75 10.375 16.75C9.965 16.75 9.625 16.41 9.625 16V13C9.625 12.59 9.965 12.25 10.375 12.25C10.785 12.25 11.125 12.59 11.125 13V16Z" fill="#4464D9"/>
</svg>
