<svg width="16" height="18" viewBox="0 0 16 18" fill="none" xmlns="http://www.w3.org/2000/svg">
<path d="M6.5 11.5V12.5C6.5 12.9167 6.646 13.2707 6.938 13.562C7.22933 13.854 7.58333 14 8 14C8.41667 14 8.77067 13.854 9.062 13.562C9.354 13.2707 9.5 12.9167 9.5 12.5V11.5H10.5C10.9167 11.5 11.2707 11.354 11.562 11.062C11.854 10.7707 12 10.4167 12 10C12 9.58333 11.854 9.22933 11.562 8.938C11.2707 8.646 10.9167 8.5 10.5 8.5H9.5V7.5C9.5 7.08333 9.354 6.72933 9.062 6.438C8.77067 6.146 8.41667 6 8 6C7.58333 6 7.22933 6.146 6.938 6.438C6.646 6.72933 6.5 7.08333 6.5 7.5V8.5H5.5C5.08333 8.5 4.72933 8.646 4.438 8.938C4.146 9.22933 4 9.58333 4 10C4 10.4167 4.146 10.7707 4.438 11.062C4.72933 11.354 5.08333 11.5 5.5 11.5H6.5ZM2 18C1.45 18 0.979333 17.8043 0.588 17.413C0.196 17.021 0 16.55 0 16V7C0 6.68333 0.0709998 6.38333 0.213 6.1C0.354333 5.81667 0.55 5.58333 0.8 5.4L6.8 0.9C7.15 0.633333 7.55 0.5 8 0.5C8.45 0.5 8.85 0.633333 9.2 0.9L15.2 5.4C15.45 5.58333 15.646 5.81667 15.788 6.1C15.9293 6.38333 16 6.68333 16 7V16C16 16.55 15.8043 17.021 15.413 17.413C15.021 17.8043 14.55 18 14 18H2Z" fill="white"/>
</svg>
