<svg width="40" height="40" viewBox="0 0 40 40" fill="none" xmlns="http://www.w3.org/2000/svg">
<circle cx="20" cy="20" r="20" fill="#F7F7FF"/>
<mask id="mask0_33_2515" style="mask-type:alpha" maskUnits="userSpaceOnUse" x="8" y="8" width="24" height="24">
<rect x="8" y="8" width="24" height="24" fill="#D9D9D9"/>
</mask>
<g mask="url(#mask0_33_2515)">
<path d="M15 24C15.2833 24 15.521 23.904 15.713 23.712C15.9043 23.5207 16 23.2833 16 23C16 22.7167 15.9043 22.479 15.713 22.287C15.521 22.0957 15.2833 22 15 22C14.7167 22 14.479 22.0957 14.287 22.287C14.0957 22.479 14 22.7167 14 23C14 23.2833 14.0957 23.5207 14.287 23.712C14.479 23.904 14.7167 24 15 24ZM15 21C15.2833 21 15.521 20.904 15.713 20.712C15.9043 20.5207 16 20.2833 16 20V17C16 16.7167 15.9043 16.479 15.713 16.287C15.521 16.0957 15.2833 16 15 16C14.7167 16 14.479 16.0957 14.287 16.287C14.0957 16.479 14 16.7167 14 17V20C14 20.2833 14.0957 20.5207 14.287 20.712C14.479 20.904 14.7167 21 15 21ZM19 23H25C25.2833 23 25.5207 22.904 25.712 22.712C25.904 22.5207 26 22.2833 26 22C26 21.7167 25.904 21.479 25.712 21.287C25.5207 21.0957 25.2833 21 25 21H19C18.7167 21 18.4793 21.0957 18.288 21.287C18.096 21.479 18 21.7167 18 22C18 22.2833 18.096 22.5207 18.288 22.712C18.4793 22.904 18.7167 23 19 23ZM19 19H25C25.2833 19 25.5207 18.904 25.712 18.712C25.904 18.5207 26 18.2833 26 18C26 17.7167 25.904 17.479 25.712 17.287C25.5207 17.0957 25.2833 17 25 17H19C18.7167 17 18.4793 17.0957 18.288 17.287C18.096 17.479 18 17.7167 18 18C18 18.2833 18.096 18.5207 18.288 18.712C18.4793 18.904 18.7167 19 19 19ZM12 28C11.45 28 10.9793 27.8043 10.588 27.413C10.196 27.021 10 26.55 10 26V14C10 13.45 10.196 12.9793 10.588 12.588C10.9793 12.196 11.45 12 12 12H28C28.55 12 29.021 12.196 29.413 12.588C29.8043 12.9793 30 13.45 30 14V26C30 26.55 29.8043 27.021 29.413 27.413C29.021 27.8043 28.55 28 28 28H12Z" fill="#48BD69"/>
</g>
</svg>
