<svg width="16" height="16" viewBox="0 0 16 16" fill="none" xmlns="http://www.w3.org/2000/svg">
<path d="M8.00001 15.3001C7.81112 15.3001 7.65279 15.2362 7.52501 15.1084C7.39723 14.9806 7.33334 14.8223 7.33334 14.6334V13.9667C5.94446 13.8112 4.75279 13.2362 3.75835 12.2417C2.7639 11.2473 2.1889 10.0556 2.03335 8.66674H1.36668C1.17779 8.66674 1.01946 8.60285 0.891679 8.47507C0.763901 8.3473 0.700012 8.18896 0.700012 8.00007C0.700012 7.81118 0.763901 7.65285 0.891679 7.52507C1.01946 7.39729 1.17779 7.33341 1.36668 7.33341H2.03335C2.1889 5.94452 2.7639 4.75285 3.75835 3.75841C4.75279 2.76396 5.94446 2.18896 7.33334 2.03341V1.36674C7.33334 1.17785 7.39723 1.01952 7.52501 0.89174C7.65279 0.763962 7.81112 0.700073 8.00001 0.700073C8.1889 0.700073 8.34723 0.763962 8.47501 0.89174C8.60279 1.01952 8.66668 1.17785 8.66668 1.36674V2.03341C10.0556 2.18896 11.2472 2.76396 12.2417 3.75841C13.2361 4.75285 13.8111 5.94452 13.9667 7.33341H14.6333C14.8222 7.33341 14.9806 7.39729 15.1083 7.52507C15.2361 7.65285 15.3 7.81118 15.3 8.00007C15.3 8.18896 15.2361 8.3473 15.1083 8.47507C14.9806 8.60285 14.8222 8.66674 14.6333 8.66674H13.9667C13.8111 10.0556 13.2361 11.2473 12.2417 12.2417C11.2472 13.2362 10.0556 13.8112 8.66668 13.9667V14.6334C8.66668 14.8223 8.60279 14.9806 8.47501 15.1084C8.34723 15.2362 8.1889 15.3001 8.00001 15.3001ZM8.00001 12.6667C9.2889 12.6667 10.3889 12.2112 11.3 11.3001C12.2111 10.389 12.6667 9.28896 12.6667 8.00007C12.6667 6.71118 12.2111 5.61118 11.3 4.70007C10.3889 3.78896 9.2889 3.33341 8.00001 3.33341C6.71112 3.33341 5.61112 3.78896 4.70001 4.70007C3.7889 5.61118 3.33335 6.71118 3.33335 8.00007C3.33335 9.28896 3.7889 10.389 4.70001 11.3001C5.61112 12.2112 6.71112 12.6667 8.00001 12.6667ZM8.00001 10.6667C7.26668 10.6667 6.6389 10.4056 6.11668 9.88341C5.59446 9.36118 5.33335 8.73341 5.33335 8.00007C5.33335 7.26674 5.59446 6.63896 6.11668 6.11674C6.6389 5.59452 7.26668 5.33341 8.00001 5.33341C8.73335 5.33341 9.36112 5.59452 9.88335 6.11674C10.4056 6.63896 10.6667 7.26674 10.6667 8.00007C10.6667 8.73341 10.4056 9.36118 9.88335 9.88341C9.36112 10.4056 8.73335 10.6667 8.00001 10.6667ZM8.00001 9.33341C8.36668 9.33341 8.68057 9.20285 8.94168 8.94174C9.20279 8.68063 9.33334 8.36674 9.33334 8.00007C9.33334 7.63341 9.20279 7.31952 8.94168 7.05841C8.68057 6.7973 8.36668 6.66674 8.00001 6.66674C7.63335 6.66674 7.31946 6.7973 7.05835 7.05841C6.79723 7.31952 6.66668 7.63341 6.66668 8.00007C6.66668 8.36674 6.79723 8.68063 7.05835 8.94174C7.31946 9.20285 7.63335 9.33341 8.00001 9.33341Z" fill="#172331"/>
</svg>
