<svg width="143" height="102" viewBox="0 0 143 102" fill="none" xmlns="http://www.w3.org/2000/svg">
<g clip-path="url(#clip0_9_2095)">
<path d="M122.492 20.7723C122.503 20.6931 122.503 20.613 122.492 20.5338C122.502 20.4692 122.502 20.4034 122.492 20.3387L121.736 14.7667C121.627 14.1 121.336 13.477 120.895 12.9671L120.765 12.8154L120.528 12.5769L107.446 1.25938L107.813 1.62799C107.513 1.26721 107.136 0.978636 106.711 0.783522C106.285 0.588408 105.821 0.491711 105.353 0.500566H101.381C100.735 0.487713 100.104 0.693962 99.5891 1.08596C99.0486 0.696324 98.398 0.49113 97.7327 0.500566H93.7608C93.2399 0.492078 92.7261 0.62193 92.2712 0.877014C91.8163 1.1321 91.4366 1.50335 91.1706 1.95319C90.7603 2.59568 90.6062 3.36978 90.7388 4.12129L91.2353 7.6336C90.9064 7.44633 90.534 7.34916 90.1559 7.35178H70.9227C70.2326 7.35613 69.5585 7.55928 68.9799 7.93714C68.4204 8.28886 67.9714 8.79248 67.6848 9.38976L66.1953 8.11059C65.6091 7.5658 64.8353 7.27051 64.0367 7.28673H33.8593C33.1668 7.2994 32.4896 7.49371 31.895 7.85043C31.0815 8.32869 30.4853 9.10633 30.2328 10.0185L20.6486 42.2149C20.4695 42.7454 20.4519 43.3175 20.598 43.8582C20.7441 44.3987 21.0473 44.8835 21.4689 45.2503C21.5787 45.3437 21.6941 45.4307 21.8142 45.5103C21.8142 45.5103 21.6199 45.3802 21.512 45.2719L34.5933 56.6111C35.1466 57.1228 35.8701 57.4088 36.6222 57.4132H67.0372C67.7318 57.3951 68.4094 57.1932 69.0016 56.8278C69.3365 56.644 69.6361 56.4017 69.8866 56.1123L69.9945 55.9605L70.1672 55.7438L70.2967 55.5053L71.7214 56.7412C72.2668 57.2325 72.9746 57.5028 73.7073 57.5H104.187C104.881 57.4767 105.557 57.2753 106.151 56.9146C106.479 56.7195 106.777 56.4785 107.036 56.1991L107.144 56.0473L107.317 55.8306C107.409 55.6934 107.488 55.5483 107.554 55.3968C107.625 55.2654 107.683 55.1275 107.727 54.985L116.469 25.5855V25.3253C116.48 25.2245 116.48 25.1227 116.469 25.0218V24.8267C116.48 24.762 116.48 24.6962 116.469 24.6315C116.479 24.4944 116.479 24.3568 116.469 24.2195H119.276C119.52 24.2421 119.765 24.2421 120.009 24.2195H120.204C120.362 24.1722 120.514 24.1067 120.657 24.0245H120.873L121.262 23.7209L121.434 23.5908L121.736 23.2005V23.0706L121.952 22.7019C121.94 22.6302 121.94 22.5569 121.952 22.4852C121.941 22.45 121.941 22.4119 121.952 22.3767C121.998 22.2496 122.034 22.1191 122.06 21.9864C122.05 21.9437 122.05 21.8991 122.06 21.8563C122.05 21.7918 122.05 21.7258 122.06 21.6612C122.06 21.6612 122.492 20.8156 122.492 20.7723Z" fill="#172331"/>
<path d="M64.9215 9.75852C65.0361 9.8626 65.1161 9.99946 65.1508 10.1507C65.1857 10.3018 65.1734 10.4601 65.1159 10.6041L55.5532 42.7787C55.4328 43.13 55.1864 43.4237 54.8624 43.6026C54.5988 43.7798 54.2937 43.8844 53.9773 43.9062H23.5841C23.3245 43.8936 23.0786 43.7856 22.8933 43.6026C22.7831 43.5002 22.7057 43.3671 22.6711 43.2205C22.6365 43.0737 22.6463 42.9199 22.6991 42.7787L32.2833 10.6041C32.3937 10.2484 32.6324 9.94683 32.9525 9.75852C33.2205 9.5941 33.5242 9.49739 33.8375 9.47666H64.2307C64.4883 9.47915 64.7352 9.57993 64.9215 9.75852ZM49.0557 36.2961L54.776 17.0867H38.7592L33.0604 36.2961H49.0557ZM93.9333 10.0837C94.037 10.2048 94.1666 10.3007 94.3124 10.3646C94.4581 10.4284 94.6162 10.4584 94.7752 10.4523H98.7254C98.8759 10.4538 99.0241 10.4167 99.1564 10.3447C99.2885 10.2726 99.4002 10.1678 99.4809 10.0404C99.5511 9.94078 99.6006 9.82805 99.6266 9.70886C99.6525 9.58969 99.6543 9.46649 99.6319 9.34658L98.8549 3.62279C98.781 3.35788 98.6481 3.11326 98.4665 2.90731C98.3626 2.78627 98.2331 2.69028 98.0874 2.62647C97.9416 2.56266 97.7833 2.53268 97.6245 2.53873H93.6743C93.5238 2.53727 93.3755 2.57432 93.2433 2.64639C93.1112 2.71847 92.9994 2.82319 92.9188 2.95069C92.7676 3.25421 92.7029 3.44934 92.7676 3.62279L93.5663 9.34658C93.6073 9.62528 93.7359 9.88354 93.9333 10.0837ZM106.475 3.57942C106.401 3.3145 106.268 3.06989 106.086 2.86395C105.987 2.74335 105.861 2.64739 105.719 2.58346C105.577 2.51955 105.422 2.4894 105.266 2.49537H101.294C101.146 2.49114 101 2.52719 100.871 2.59971C100.741 2.67223 100.634 2.77853 100.56 2.90731C100.417 3.09966 100.354 3.34126 100.388 3.57942L101.186 9.3032C101.236 9.57897 101.364 9.83467 101.553 10.0404C101.659 10.159 101.789 10.2534 101.934 10.317C102.079 10.3806 102.236 10.412 102.395 10.4089H106.367C106.515 10.4109 106.66 10.3739 106.789 10.3016C106.918 10.2293 107.025 10.1243 107.101 9.99701C107.176 9.90001 107.228 9.78732 107.255 9.66728C107.281 9.54724 107.28 9.42285 107.252 9.3032L106.475 3.57942ZM90.4579 12.2518L90.0693 9.43329H70.9225C70.6219 9.44994 70.331 9.54728 70.0806 9.71514C69.9216 9.80223 69.7832 9.92292 69.6751 10.0689C69.5672 10.2149 69.4919 10.3827 69.4547 10.5607L67.8572 15.9376C67.7935 16.0719 67.7717 16.2227 67.7948 16.3698C67.818 16.5168 67.8849 16.6533 67.9867 16.7615C68.1688 16.9333 68.4063 17.0335 68.656 17.0434H91.9258L86.2055 36.2528H63.0003C62.7011 36.2596 62.4097 36.3497 62.1586 36.5128C61.8533 36.7076 61.6303 37.0087 61.5325 37.3584L59.9136 42.7354C59.8607 42.8733 59.8468 43.0232 59.8735 43.1686C59.9003 43.3141 59.9663 43.4492 60.0646 43.5592C60.241 43.7426 60.4804 43.8512 60.7338 43.8627H91.2134C91.5286 43.8355 91.8325 43.7313 92.0984 43.5592C92.4171 43.3793 92.6563 43.0851 92.7676 42.7354L101.532 13.3359H91.6667C91.5102 13.339 91.3548 13.3098 91.21 13.2501C91.0652 13.1905 90.9342 13.1016 90.825 12.989C90.6465 12.7924 90.5202 12.5538 90.4579 12.2952V12.2518Z" fill="white"/>
</g>
<path d="M15.504 91.108C15.504 92.068 15.256 92.876 14.76 93.532C14.264 94.172 13.592 94.66 12.744 94.996C11.912 95.332 11 95.5 10.008 95.5H1.776V78.46H10.896C11.696 78.46 12.384 78.676 12.96 79.108C13.552 79.524 14 80.068 14.304 80.74C14.624 81.396 14.784 82.084 14.784 82.804C14.784 83.62 14.576 84.396 14.16 85.132C13.744 85.868 13.136 86.412 12.336 86.764C13.312 87.052 14.08 87.572 14.64 88.324C15.216 89.076 15.504 90.004 15.504 91.108ZM12.168 90.484C12.168 90.052 12.08 89.668 11.904 89.332C11.728 88.98 11.488 88.708 11.184 88.516C10.896 88.308 10.56 88.204 10.176 88.204H5.088V92.692H10.008C10.408 92.692 10.768 92.596 11.088 92.404C11.424 92.196 11.688 91.924 11.88 91.588C12.072 91.252 12.168 90.884 12.168 90.484ZM5.088 81.292V85.588H9.504C9.872 85.588 10.208 85.5 10.512 85.324C10.816 85.148 11.056 84.9 11.232 84.58C11.424 84.26 11.52 83.876 11.52 83.428C11.52 82.996 11.432 82.62 11.256 82.3C11.096 81.98 10.872 81.732 10.584 81.556C10.312 81.38 10 81.292 9.648 81.292H5.088ZM23.5845 95.74C22.5605 95.74 21.6405 95.572 20.8245 95.236C20.0085 94.884 19.3125 94.404 18.7365 93.796C18.1765 93.188 17.7445 92.492 17.4405 91.708C17.1365 90.924 16.9845 90.1 16.9845 89.236C16.9845 88.356 17.1365 87.524 17.4405 86.74C17.7445 85.956 18.1765 85.26 18.7365 84.652C19.3125 84.044 20.0085 83.572 20.8245 83.236C21.6405 82.884 22.5605 82.708 23.5845 82.708C24.6085 82.708 25.5205 82.884 26.3205 83.236C27.1365 83.572 27.8325 84.044 28.4085 84.652C28.9845 85.26 29.4165 85.956 29.7045 86.74C30.0085 87.524 30.1605 88.356 30.1605 89.236C30.1605 90.1 30.0085 90.924 29.7045 91.708C29.4165 92.492 28.9845 93.188 28.4085 93.796C27.8485 94.404 27.1605 94.884 26.3445 95.236C25.5285 95.572 24.6085 95.74 23.5845 95.74ZM20.2965 89.236C20.2965 89.972 20.4405 90.628 20.7285 91.204C21.0165 91.764 21.4085 92.204 21.9045 92.524C22.4005 92.844 22.9605 93.004 23.5845 93.004C24.1925 93.004 24.7445 92.844 25.2405 92.524C25.7365 92.188 26.1285 91.74 26.4165 91.18C26.7205 90.604 26.8725 89.948 26.8725 89.212C26.8725 88.492 26.7205 87.844 26.4165 87.268C26.1285 86.692 25.7365 86.244 25.2405 85.924C24.7445 85.604 24.1925 85.444 23.5845 85.444C22.9605 85.444 22.4005 85.612 21.9045 85.948C21.4085 86.268 21.0165 86.716 20.7285 87.292C20.4405 87.852 20.2965 88.5 20.2965 89.236ZM38.1392 95.74C37.1152 95.74 36.1952 95.572 35.3792 95.236C34.5632 94.884 33.8672 94.404 33.2912 93.796C32.7312 93.188 32.2992 92.492 31.9952 91.708C31.6912 90.924 31.5392 90.1 31.5392 89.236C31.5392 88.356 31.6912 87.524 31.9952 86.74C32.2992 85.956 32.7312 85.26 33.2912 84.652C33.8672 84.044 34.5632 83.572 35.3792 83.236C36.1952 82.884 37.1152 82.708 38.1392 82.708C39.1632 82.708 40.0752 82.884 40.8752 83.236C41.6912 83.572 42.3872 84.044 42.9632 84.652C43.5392 85.26 43.9712 85.956 44.2592 86.74C44.5632 87.524 44.7152 88.356 44.7152 89.236C44.7152 90.1 44.5632 90.924 44.2592 91.708C43.9712 92.492 43.5392 93.188 42.9632 93.796C42.4032 94.404 41.7152 94.884 40.8992 95.236C40.0832 95.572 39.1632 95.74 38.1392 95.74ZM34.8512 89.236C34.8512 89.972 34.9952 90.628 35.2832 91.204C35.5712 91.764 35.9632 92.204 36.4592 92.524C36.9552 92.844 37.5152 93.004 38.1392 93.004C38.7472 93.004 39.2992 92.844 39.7952 92.524C40.2912 92.188 40.6832 91.74 40.9712 91.18C41.2752 90.604 41.4272 89.948 41.4272 89.212C41.4272 88.492 41.2752 87.844 40.9712 87.268C40.6832 86.692 40.2912 86.244 39.7952 85.924C39.2992 85.604 38.7472 85.444 38.1392 85.444C37.5152 85.444 36.9552 85.612 36.4592 85.948C35.9632 86.268 35.5712 86.716 35.2832 87.292C34.9952 87.852 34.8512 88.5 34.8512 89.236ZM55.4779 95.5L51.8059 90.076L50.1019 91.756V95.5H46.8859V77.98H50.1019V88.588L55.1659 82.948H58.5739L53.8939 88.276L58.9099 95.5H55.4779ZM66.3463 95.5V78.46H72.5383C74.3943 78.46 75.9463 78.844 77.1943 79.612C78.4423 80.364 79.3783 81.388 80.0023 82.684C80.6263 83.964 80.9383 85.388 80.9383 86.956C80.9383 88.684 80.5943 90.188 79.9063 91.468C79.2183 92.748 78.2423 93.74 76.9783 94.444C75.7303 95.148 74.2503 95.5 72.5383 95.5H66.3463ZM77.6023 86.956C77.6023 85.852 77.4023 84.884 77.0023 84.052C76.6023 83.204 76.0263 82.548 75.2743 82.084C74.5223 81.604 73.6103 81.364 72.5383 81.364H69.6583V92.596H72.5383C73.6263 92.596 74.5463 92.356 75.2983 91.876C76.0503 91.38 76.6183 90.708 77.0023 89.86C77.4023 88.996 77.6023 88.028 77.6023 86.956ZM89.022 95.74C87.998 95.74 87.078 95.572 86.262 95.236C85.446 94.884 84.75 94.404 84.174 93.796C83.614 93.188 83.182 92.492 82.878 91.708C82.574 90.924 82.422 90.1 82.422 89.236C82.422 88.356 82.574 87.524 82.878 86.74C83.182 85.956 83.614 85.26 84.174 84.652C84.75 84.044 85.446 83.572 86.262 83.236C87.078 82.884 87.998 82.708 89.022 82.708C90.046 82.708 90.958 82.884 91.758 83.236C92.574 83.572 93.27 84.044 93.846 84.652C94.422 85.26 94.854 85.956 95.142 86.74C95.446 87.524 95.598 88.356 95.598 89.236C95.598 90.1 95.446 90.924 95.142 91.708C94.854 92.492 94.422 93.188 93.846 93.796C93.286 94.404 92.598 94.884 91.782 95.236C90.966 95.572 90.046 95.74 89.022 95.74ZM85.734 89.236C85.734 89.972 85.878 90.628 86.166 91.204C86.454 91.764 86.846 92.204 87.342 92.524C87.838 92.844 88.398 93.004 89.022 93.004C89.63 93.004 90.182 92.844 90.678 92.524C91.174 92.188 91.566 91.74 91.854 91.18C92.158 90.604 92.31 89.948 92.31 89.212C92.31 88.492 92.158 87.844 91.854 87.268C91.566 86.692 91.174 86.244 90.678 85.924C90.182 85.604 89.63 85.444 89.022 85.444C88.398 85.444 87.838 85.612 87.342 85.948C86.846 86.268 86.454 86.716 86.166 87.292C85.878 87.852 85.734 88.5 85.734 89.236ZM103.625 95.74C102.601 95.74 101.681 95.572 100.865 95.236C100.049 94.884 99.3527 94.404 98.7767 93.796C98.2007 93.172 97.7527 92.468 97.4327 91.684C97.1287 90.9 96.9767 90.076 96.9767 89.212C96.9767 88.028 97.2407 86.948 97.7687 85.972C98.3127 84.98 99.0807 84.188 100.073 83.596C101.065 83.004 102.241 82.708 103.601 82.708C104.961 82.708 106.129 83.004 107.105 83.596C108.081 84.188 108.809 84.964 109.289 85.924L106.145 86.884C105.873 86.42 105.513 86.068 105.065 85.828C104.617 85.572 104.121 85.444 103.577 85.444C102.969 85.444 102.409 85.604 101.897 85.924C101.401 86.228 101.009 86.668 100.721 87.244C100.433 87.804 100.289 88.46 100.289 89.212C100.289 89.948 100.433 90.604 100.721 91.18C101.025 91.74 101.425 92.188 101.921 92.524C102.417 92.844 102.969 93.004 103.577 93.004C103.961 93.004 104.321 92.94 104.657 92.812C105.009 92.684 105.321 92.508 105.593 92.284C105.865 92.06 106.065 91.804 106.193 91.516L109.337 92.476C109.049 93.1 108.625 93.66 108.065 94.156C107.521 94.652 106.873 95.044 106.121 95.332C105.385 95.604 104.553 95.74 103.625 95.74ZM118.852 94.852C118.58 94.964 118.252 95.092 117.868 95.236C117.484 95.38 117.068 95.492 116.62 95.572C116.188 95.668 115.748 95.716 115.3 95.716C114.708 95.716 114.164 95.612 113.668 95.404C113.172 95.196 112.772 94.868 112.468 94.42C112.18 93.956 112.036 93.356 112.036 92.62V85.396H110.38V82.924H112.036V78.844H115.252V82.924H117.892V85.396H115.252V91.54C115.268 91.972 115.388 92.284 115.612 92.476C115.836 92.668 116.116 92.764 116.452 92.764C116.788 92.764 117.116 92.708 117.436 92.596C117.756 92.484 118.012 92.388 118.204 92.308L118.852 94.852ZM126.17 95.74C125.146 95.74 124.226 95.572 123.41 95.236C122.594 94.884 121.898 94.404 121.322 93.796C120.762 93.188 120.33 92.492 120.026 91.708C119.722 90.924 119.57 90.1 119.57 89.236C119.57 88.356 119.722 87.524 120.026 86.74C120.33 85.956 120.762 85.26 121.322 84.652C121.898 84.044 122.594 83.572 123.41 83.236C124.226 82.884 125.146 82.708 126.17 82.708C127.194 82.708 128.106 82.884 128.906 83.236C129.722 83.572 130.418 84.044 130.994 84.652C131.57 85.26 132.002 85.956 132.29 86.74C132.594 87.524 132.746 88.356 132.746 89.236C132.746 90.1 132.594 90.924 132.29 91.708C132.002 92.492 131.57 93.188 130.994 93.796C130.434 94.404 129.746 94.884 128.93 95.236C128.114 95.572 127.194 95.74 126.17 95.74ZM122.882 89.236C122.882 89.972 123.026 90.628 123.314 91.204C123.602 91.764 123.994 92.204 124.49 92.524C124.986 92.844 125.546 93.004 126.17 93.004C126.778 93.004 127.33 92.844 127.826 92.524C128.322 92.188 128.714 91.74 129.002 91.18C129.306 90.604 129.458 89.948 129.458 89.212C129.458 88.492 129.306 87.844 129.002 87.268C128.714 86.692 128.322 86.244 127.826 85.924C127.33 85.604 126.778 85.444 126.17 85.444C125.546 85.444 124.986 85.612 124.49 85.948C123.994 86.268 123.602 86.716 123.314 87.292C123.026 87.852 122.882 88.5 122.882 89.236ZM142.405 85.708C141.429 85.708 140.557 85.9 139.789 86.284C139.021 86.652 138.469 87.188 138.133 87.892V95.5H134.917V82.924H137.869V85.612C138.317 84.748 138.885 84.068 139.573 83.572C140.261 83.076 140.989 82.804 141.757 82.756C141.933 82.756 142.069 82.756 142.165 82.756C142.261 82.756 142.341 82.764 142.405 82.78V85.708Z" fill="white"/>
<defs>
<clipPath id="clip0_9_2095">
<rect width="102" height="57" fill="white" transform="translate(20.5 0.5)"/>
</clipPath>
</defs>
</svg>
