<svg width="51" height="28" viewBox="0 0 51 28" fill="none" xmlns="http://www.w3.org/2000/svg">
<g clip-path="url(#clip0_7_630)">
<path d="M50.996 9.95834C51.0013 9.91942 51.0013 9.88008 50.996 9.84116C51.0011 9.80945 51.0011 9.77711 50.996 9.74533L50.6182 7.00819C50.5637 6.68072 50.418 6.37466 50.1973 6.12422L50.1325 6.04966L50.0139 5.9325L43.4732 0.37303L43.6567 0.5541C43.5066 0.376875 43.3182 0.23512 43.1053 0.139274C42.8923 0.0434283 42.6603 -0.00407169 42.4263 0.000278193H40.4404C40.1175 -0.00603549 39.8019 0.0952798 39.5445 0.287841C39.2743 0.0964397 38.949 -0.00435735 38.6163 0.000278193H36.6304C36.3699 -0.00389175 36.113 0.0598953 35.8856 0.1852C35.6581 0.310504 35.4683 0.492876 35.3353 0.713846C35.1301 1.02946 35.0531 1.40972 35.1194 1.77888L35.3676 3.50423C35.2032 3.41223 35.017 3.3645 34.828 3.36579H25.2114C24.8663 3.36792 24.5292 3.46772 24.2399 3.65334C23.9602 3.82611 23.7357 4.0735 23.5924 4.3669L22.8476 3.73854C22.5545 3.47092 22.1676 3.32587 21.7684 3.33383H6.67964C6.33339 3.34006 5.99482 3.43551 5.6975 3.61074C5.29073 3.84567 4.99263 4.22767 4.86641 4.67577L0.07429 20.4915C-0.0152492 20.7521 -0.0240574 21.0332 0.0489936 21.2988C0.122044 21.5643 0.273646 21.8024 0.484431 21.9826C0.539355 22.0285 0.597026 22.0712 0.657124 22.1103C0.657124 22.1103 0.559972 22.0464 0.506006 21.9932L7.04663 27.5633C7.32332 27.8147 7.68506 27.9552 8.06112 27.9574H23.2686C23.6159 27.9485 23.9547 27.8493 24.2508 27.6698C24.4182 27.5795 24.568 27.4605 24.6933 27.3183L24.7473 27.2438L24.8336 27.1373L24.8983 27.0201L25.6107 27.6273C25.8834 27.8686 26.2373 28.0014 26.6037 28H41.8434C42.1904 27.9886 42.5285 27.8896 42.8256 27.7124C42.9893 27.6166 43.1383 27.4982 43.2682 27.361L43.3221 27.2864L43.4084 27.18C43.4543 27.1125 43.4941 27.0413 43.5272 26.9669C43.5624 26.9023 43.5913 26.8346 43.6135 26.7646L47.9847 12.3227V12.1949C47.9901 12.1454 47.9901 12.0954 47.9847 12.0458V11.95C47.9899 11.9182 47.9899 11.8859 47.9847 11.8541C47.9896 11.7867 47.9896 11.7191 47.9847 11.6517H49.3878C49.5099 11.6628 49.6327 11.6628 49.7547 11.6517H49.8519C49.9309 11.6285 50.007 11.5963 50.0786 11.5559H50.1866L50.3808 11.4068L50.4671 11.3429L50.6182 11.1511V11.0873L50.7262 10.9062C50.7201 10.871 50.7201 10.835 50.7262 10.7997C50.7204 10.7825 50.7204 10.7638 50.7262 10.7465C50.7491 10.684 50.7672 10.6199 50.7801 10.5547C50.7751 10.5337 50.7751 10.5118 50.7801 10.4908C50.7749 10.4591 50.7749 10.4267 50.7801 10.395C50.7801 10.395 50.996 9.97962 50.996 9.95834Z" fill="#172331"/>
<path d="M22.2108 4.54803C22.2681 4.59915 22.3081 4.66638 22.3254 4.74065C22.3429 4.81492 22.3367 4.89266 22.3079 4.96339L17.5266 20.7685C17.4664 20.941 17.3432 21.0853 17.1812 21.1732C17.0494 21.2602 16.8968 21.3116 16.7387 21.3223H1.54206C1.41228 21.3162 1.28933 21.2631 1.19668 21.1732C1.14156 21.1229 1.10288 21.0575 1.08557 20.9855C1.06827 20.9134 1.07314 20.8378 1.09954 20.7685L5.89167 4.96339C5.94688 4.78865 6.06618 4.64053 6.22625 4.54803C6.36024 4.46726 6.51209 4.41975 6.66876 4.40957H21.8654C21.9941 4.41079 22.1176 4.4603 22.2108 4.54803ZM14.2778 17.584L17.138 8.14783H9.12961L6.2802 17.584H14.2778ZM36.7166 4.70777C36.7685 4.76723 36.8333 4.81438 36.9062 4.84573C36.9791 4.87708 37.0581 4.89181 37.1376 4.88883H39.1127C39.1879 4.88956 39.262 4.87136 39.3282 4.83595C39.3943 4.80054 39.4501 4.74909 39.4905 4.68647C39.5255 4.63756 39.5503 4.58218 39.5633 4.52363C39.5763 4.46509 39.5772 4.40458 39.566 4.34567L39.1775 1.53398C39.1405 1.40385 39.074 1.28369 38.9832 1.18252C38.9313 1.12306 38.8666 1.07591 38.7937 1.04456C38.7208 1.01322 38.6417 0.998488 38.5623 1.00146H36.5872C36.5119 1.00074 36.4378 1.01894 36.3717 1.05435C36.3056 1.08975 36.2497 1.1412 36.2094 1.20383C36.1338 1.35293 36.1015 1.44878 36.1338 1.53398L36.5332 4.34567C36.5537 4.48258 36.618 4.60944 36.7166 4.70777ZM42.9874 1.51268C42.9504 1.38254 42.884 1.26238 42.7931 1.16122C42.7435 1.10198 42.6806 1.05484 42.6095 1.02344C42.5384 0.992041 42.4609 0.977229 42.383 0.980162H40.3971C40.3231 0.978083 40.2499 0.995793 40.1853 1.03142C40.1207 1.06704 40.0671 1.11926 40.0302 1.18252C39.9583 1.277 39.9272 1.39569 39.9438 1.51268L40.3431 4.32436C40.3682 4.45983 40.4318 4.58543 40.5266 4.68647C40.5794 4.74477 40.6443 4.79113 40.717 4.82238C40.7897 4.85363 40.8683 4.86903 40.9475 4.86752H42.9335C43.0073 4.86849 43.08 4.85031 43.1443 4.81479C43.2088 4.77927 43.2626 4.72769 43.3005 4.66518C43.338 4.61753 43.3642 4.56217 43.3773 4.50321C43.3904 4.44424 43.3899 4.38313 43.376 4.32436L42.9874 1.51268ZM34.979 5.77281L34.7847 4.38827H25.2113C25.0609 4.39644 24.9155 4.44426 24.7903 4.52672C24.7108 4.5695 24.6416 4.62879 24.5876 4.70049C24.5336 4.77221 24.496 4.85463 24.4773 4.94208L23.6786 7.58335C23.6468 7.64936 23.6358 7.72342 23.6474 7.79566C23.659 7.8679 23.6924 7.93496 23.7434 7.98809C23.8344 8.07251 23.9532 8.12172 24.078 8.12655H35.7129L32.8528 17.5628H21.2502C21.1006 17.5661 20.9549 17.6104 20.8293 17.6905C20.6766 17.7862 20.5652 17.9341 20.5163 18.1059L19.7068 20.7472C19.6804 20.815 19.6734 20.8886 19.6867 20.96C19.7001 21.0315 19.7331 21.0978 19.7823 21.1519C19.8705 21.242 19.9902 21.2953 20.1169 21.301H35.3567C35.5143 21.2876 35.6663 21.2364 35.7992 21.1519C35.9586 21.0635 36.0781 20.919 36.1338 20.7472L40.5158 6.30533H35.5834C35.5051 6.30685 35.4274 6.29251 35.355 6.2632C35.2826 6.23389 35.2171 6.19022 35.1625 6.13491C35.0732 6.03833 35.0101 5.92113 34.979 5.79411V5.77281Z" fill="white"/>
</g>
<defs>
<clipPath id="clip0_7_630">
<rect width="51" height="28" fill="white"/>
</clipPath>
</defs>
</svg>
