<svg width="86" height="42" viewBox="0 0 86 42" fill="none" xmlns="http://www.w3.org/2000/svg">
<path d="M42.9215 7.75852C43.0361 7.8626 43.1161 7.99946 43.1508 8.15065C43.1857 8.30184 43.1734 8.46009 43.1159 8.60407L33.5532 40.7787C33.4328 41.13 33.1864 41.4237 32.8624 41.6026C32.5988 41.7798 32.2937 41.8844 31.9773 41.9062H1.5841C1.32454 41.8936 1.07864 41.7856 0.893338 41.6026C0.783107 41.5002 0.705743 41.3671 0.671134 41.2205C0.636525 41.0737 0.646271 40.9199 0.699071 40.7787L10.2833 8.60407C10.3937 8.24836 10.6324 7.94683 10.9525 7.75852C11.2205 7.5941 11.5242 7.49739 11.8375 7.47666H42.2307C42.4883 7.47915 42.7352 7.57993 42.9215 7.75852ZM27.0557 34.2961L32.776 15.0867H16.7592L11.0604 34.2961H27.0557ZM71.9333 8.08372C72.037 8.20476 72.1666 8.30075 72.3124 8.36456C72.4581 8.42837 72.6162 8.45837 72.7752 8.4523H76.7254C76.8759 8.45378 77.0241 8.41673 77.1564 8.34465C77.2885 8.27257 77.4002 8.16784 77.4809 8.04036C77.5511 7.94078 77.6006 7.82805 77.6266 7.70886C77.6525 7.58969 77.6543 7.4665 77.632 7.34658L76.8549 1.62279C76.781 1.35788 76.6481 1.11326 76.4665 0.907309C76.3626 0.78627 76.2331 0.690282 76.0874 0.62647C75.9416 0.562659 75.7833 0.532677 75.6245 0.538733H71.6743C71.5238 0.537265 71.3755 0.574315 71.2433 0.646392C71.1112 0.718468 70.9994 0.823191 70.9188 0.950686C70.7676 1.25421 70.7029 1.44934 70.7676 1.62279L71.5663 7.34658C71.6073 7.62528 71.7359 7.88354 71.9333 8.08372ZM84.4749 1.57942C84.4008 1.3145 84.2679 1.06989 84.0863 0.863947C83.987 0.743349 83.8612 0.647389 83.7189 0.583464C83.5767 0.519553 83.4217 0.4894 83.266 0.49537H79.2941C79.1462 0.491138 78.9999 0.527191 78.8707 0.599709C78.7415 0.672227 78.6342 0.778532 78.5603 0.907309C78.4166 1.09966 78.3544 1.34126 78.3876 1.57942L79.1862 7.3032C79.2363 7.57897 79.3635 7.83467 79.5532 8.04036C79.6588 8.15903 79.7887 8.25341 79.934 8.31702C80.0794 8.38063 80.2365 8.41198 80.395 8.40892H84.3669C84.5145 8.41088 84.6599 8.37388 84.7887 8.30157C84.9176 8.22927 85.0252 8.12426 85.1009 7.99701C85.176 7.90001 85.2284 7.78732 85.2546 7.66728C85.2808 7.54724 85.2798 7.42285 85.2519 7.3032L84.4749 1.57942ZM68.4579 10.2518L68.0693 7.43329H48.9225C48.6219 7.44994 48.331 7.54728 48.0806 7.71514C47.9216 7.80223 47.7832 7.92292 47.6751 8.0689C47.5672 8.21489 47.4919 8.38267 47.4547 8.56071L45.8572 13.9376C45.7935 14.0719 45.7717 14.2227 45.7948 14.3698C45.818 14.5168 45.8849 14.6533 45.9867 14.7615C46.1688 14.9333 46.4063 15.0335 46.656 15.0434H69.9258L64.2055 34.2528H41.0003C40.7011 34.2596 40.4097 34.3497 40.1586 34.5128C39.8533 34.7076 39.6303 35.0087 39.5325 35.3584L37.9136 40.7354C37.8607 40.8733 37.8468 41.0232 37.8735 41.1686C37.9003 41.3141 37.9663 41.4492 38.0646 41.5592C38.241 41.7426 38.4804 41.8512 38.7338 41.8627H69.2134C69.5286 41.8355 69.8325 41.7313 70.0984 41.5592C70.4171 41.3793 70.6563 41.0851 70.7676 40.7354L79.5316 11.3359H69.6667C69.5102 11.339 69.3548 11.3098 69.21 11.2501C69.0652 11.1905 68.9342 11.1016 68.825 10.989C68.6465 10.7924 68.5202 10.5538 68.4579 10.2952V10.2518Z" fill="white"/>
</svg>
