<svg width="103" height="58" viewBox="0 0 103 58" fill="none" xmlns="http://www.w3.org/2000/svg">
<path d="M102.492 20.7723C102.503 20.6931 102.503 20.613 102.492 20.5338C102.502 20.4692 102.502 20.4034 102.492 20.3387L101.736 14.7667C101.627 14.1 101.336 13.477 100.895 12.9671L100.765 12.8154L100.528 12.5769L87.4465 1.25938L87.8134 1.62799C87.5132 1.26721 87.1364 0.978636 86.7105 0.783522C86.2847 0.588408 85.8206 0.491711 85.3527 0.500566H81.3808C80.7349 0.487713 80.1038 0.693962 79.5891 1.08596C79.0486 0.696324 78.398 0.49113 77.7327 0.500566H73.7608C73.2399 0.492078 72.7261 0.62193 72.2712 0.877014C71.8163 1.1321 71.4366 1.50335 71.1706 1.95319C70.7603 2.59568 70.6062 3.36978 70.7388 4.12129L71.2353 7.6336C70.9063 7.44633 70.534 7.34916 70.1559 7.35178H50.9227C50.2326 7.35613 49.5585 7.55928 48.9799 7.93714C48.4204 8.28886 47.9714 8.79248 47.6848 9.38976L46.1953 8.11059C45.6091 7.5658 44.8353 7.27051 44.0367 7.28673H13.8593C13.1668 7.2994 12.4896 7.49371 11.895 7.85043C11.0815 8.32869 10.4853 9.10633 10.2328 10.0185L0.64858 42.2149C0.469502 42.7454 0.451885 43.3175 0.597987 43.8582C0.744089 44.3987 1.04729 44.8835 1.46886 45.2503C1.57871 45.3437 1.69405 45.4307 1.81425 45.5103C1.81425 45.5103 1.61994 45.3802 1.51201 45.2719L14.5933 56.6111C15.1466 57.1228 15.8701 57.4088 16.6222 57.4132H47.0372C47.7318 57.3951 48.4094 57.1932 49.0016 56.8278C49.3365 56.644 49.6361 56.4017 49.8866 56.1123L49.9945 55.9605L50.1672 55.7438L50.2967 55.5053L51.7214 56.7412C52.2668 57.2325 52.9746 57.5028 53.7073 57.5H84.1869C84.8808 57.4767 85.5571 57.2752 86.1512 56.9146C86.4786 56.7195 86.7766 56.4785 87.0364 56.1991L87.1442 56.0473L87.3169 55.8306C87.4087 55.6934 87.4883 55.5483 87.5543 55.3968C87.6249 55.2654 87.6827 55.1275 87.727 54.985L96.4694 25.5855V25.3253C96.4802 25.2245 96.4802 25.1227 96.4694 25.0218V24.8267C96.4799 24.762 96.4799 24.6962 96.4694 24.6315C96.4792 24.4944 96.4792 24.3568 96.4694 24.2195H99.2757C99.5198 24.2421 99.7654 24.2421 100.009 24.2195H100.204C100.362 24.1722 100.514 24.1067 100.657 24.0245H100.873L101.262 23.7209L101.434 23.5908L101.736 23.2005V23.0706L101.952 22.7019C101.94 22.6302 101.94 22.5569 101.952 22.4852C101.941 22.45 101.941 22.4119 101.952 22.3767C101.998 22.2496 102.034 22.1191 102.06 21.9864C102.05 21.9437 102.05 21.8991 102.06 21.8563C102.05 21.7918 102.05 21.7258 102.06 21.6612C102.06 21.6612 102.492 20.8156 102.492 20.7723Z" fill="#172331"/>
</svg>
