<svg width="40" height="40" viewBox="0 0 40 40" fill="none" xmlns="http://www.w3.org/2000/svg">
<circle cx="20" cy="20" r="20" fill="#F7F7FF"/>
<mask id="mask0_33_2516" style="mask-type:alpha" maskUnits="userSpaceOnUse" x="8" y="8" width="24" height="24">
<rect x="8" y="8" width="24" height="24" fill="#D9D9D9"/>
</mask>
<g mask="url(#mask0_33_2516)">
<path d="M18.7 20.725L17.85 19.45C17.7667 19.3167 17.65 19.2083 17.5 19.125C17.35 19.0417 17.1917 19 17.025 19H10.475C10.2917 18.5667 10.1667 18.15 10.1 17.75C10.0333 17.35 10 16.9333 10 16.5C10 14.9333 10.525 13.625 11.575 12.575C12.625 11.525 13.9333 11 15.5 11C16.3667 11 17.1917 11.1833 17.975 11.55C18.7583 11.9167 19.4333 12.4333 20 13.1C20.5667 12.4333 21.2417 11.9167 22.025 11.55C22.8083 11.1833 23.6333 11 24.5 11C26.0667 11 27.375 11.525 28.425 12.575C29.475 13.625 30 14.9333 30 16.5C30 16.9333 29.9667 17.35 29.9 17.75C29.8333 18.15 29.7083 18.5667 29.525 19H23.575L21.85 16.45C21.75 16.3 21.621 16.1877 21.463 16.113C21.3043 16.0377 21.1333 16 20.95 16C20.7333 16 20.5457 16.0627 20.387 16.188C20.229 16.3127 20.1167 16.475 20.05 16.675L18.7 20.725ZM18.675 28.15C16.925 26.5833 15.4707 25.225 14.312 24.075C13.154 22.925 12.2583 21.9 11.625 21H16.425L18.15 23.55C18.25 23.7 18.3793 23.8123 18.538 23.887C18.696 23.9623 18.8667 24 19.05 24C19.2667 24 19.4543 23.9373 19.613 23.812C19.771 23.6873 19.8833 23.525 19.95 23.325L21.3 19.25L22.175 20.55C22.2583 20.6833 22.375 20.7917 22.525 20.875C22.675 20.9583 22.8333 21 23 21H28.375C27.7417 21.9 26.846 22.925 25.688 24.075C24.5293 25.225 23.075 26.5833 21.325 28.15C21.1417 28.3333 20.9333 28.4667 20.7 28.55C20.4667 28.6333 20.2333 28.675 20 28.675C19.7667 28.675 19.5333 28.6333 19.3 28.55C19.0667 28.4667 18.8583 28.3333 18.675 28.15Z" fill="#FFC046"/>
</g>
</svg>
