<svg width="20" height="20" viewBox="0 0 20 20" fill="none" xmlns="http://www.w3.org/2000/svg">
<mask id="mask0_33_1554" style="mask-type:alpha" maskUnits="userSpaceOnUse" x="0" y="0" width="20" height="20">
<rect width="20" height="20" fill="#D9D9D9"/>
</mask>
<g mask="url(#mask0_33_1554)">
<path d="M16.5 6.04183C16.6528 6.19461 16.7292 6.38905 16.7292 6.62516C16.7292 6.86127 16.6528 7.05572 16.5 7.2085L15.8959 7.81266C15.7292 7.97933 15.5314 8.06266 15.3025 8.06266C15.0731 8.06266 14.875 7.97933 14.7084 7.81266C14.5417 7.646 14.462 7.44794 14.4692 7.2185C14.4759 6.98961 14.5625 6.79183 14.7292 6.62516L15.3334 6.021C15.5 5.86822 15.6981 5.79516 15.9275 5.80183C16.1564 5.80905 16.3472 5.88905 16.5 6.04183ZM2.50002 16.6668C2.26391 16.6668 2.06613 16.5868 1.90669 16.4268C1.74669 16.2674 1.66669 16.0696 1.66669 15.8335C1.66669 15.5974 1.74669 15.3996 1.90669 15.2402C2.06613 15.0802 2.26391 15.0002 2.50002 15.0002H17.5C17.7361 15.0002 17.9339 15.0802 18.0934 15.2402C18.2534 15.3996 18.3334 15.5974 18.3334 15.8335C18.3334 16.0696 18.2534 16.2674 18.0934 16.4268C17.9339 16.5868 17.7361 16.6668 17.5 16.6668H2.50002ZM10 3.3335C10.2361 3.3335 10.4342 3.41322 10.5942 3.57266C10.7536 3.73266 10.8334 3.93072 10.8334 4.16683V5.00016C10.8334 5.23627 10.7536 5.43433 10.5942 5.59433C10.4342 5.75377 10.2361 5.8335 10 5.8335C9.76391 5.8335 9.56613 5.75377 9.40669 5.59433C9.24669 5.43433 9.16669 5.23627 9.16669 5.00016V4.16683C9.16669 3.93072 9.24669 3.73266 9.40669 3.57266C9.56613 3.41322 9.76391 3.3335 10 3.3335ZM3.54169 6.00016C3.69446 5.84738 3.88891 5.771 4.12502 5.771C4.36113 5.771 4.55558 5.84738 4.70835 6.00016L5.31252 6.60433C5.47919 6.771 5.56252 6.96877 5.56252 7.19766C5.56252 7.42711 5.47919 7.62516 5.31252 7.79183C5.14585 7.94461 4.94446 8.021 4.70835 8.021C4.47224 8.021 4.2778 7.93766 4.12502 7.771L3.52085 7.16683C3.36808 7.00016 3.2953 6.80211 3.30252 6.57266C3.30919 6.34377 3.38891 6.15294 3.54169 6.00016ZM6.18752 11.6668H13.8125C13.4931 10.9168 12.9931 10.3127 12.3125 9.85433C11.632 9.396 10.8611 9.16683 10 9.16683C9.13891 9.16683 8.36808 9.396 7.68752 9.85433C7.00697 10.3127 6.50696 10.9168 6.18752 11.6668ZM4.16669 13.3335C4.16669 11.7085 4.7328 10.3299 5.86502 9.19766C6.99669 8.066 8.37502 7.50016 10 7.50016C11.625 7.50016 13.0034 8.066 14.135 9.19766C15.2672 10.3299 15.8334 11.7085 15.8334 13.3335H4.16669Z" fill="#78879A"/>
</g>
</svg>
