<svg width="20" height="20" viewBox="0 0 20 20" fill="none" xmlns="http://www.w3.org/2000/svg">
<mask id="mask0_72_1162" style="mask-type:alpha" maskUnits="userSpaceOnUse" x="0" y="0" width="20" height="20">
<rect width="20" height="20" fill="#D9D9D9"/>
</mask>
<g mask="url(#mask0_72_1162)">
<path d="M10.0002 19.124C9.76413 19.124 9.56622 19.0442 9.40649 18.8844C9.24677 18.7247 9.16691 18.5268 9.16691 18.2907V17.4574C7.4308 17.2629 5.94122 16.5442 4.69816 15.3011C3.45511 14.0581 2.73636 12.5685 2.54191 10.8324H1.70858C1.47247 10.8324 1.27455 10.7525 1.11483 10.5928C0.955105 10.4331 0.875244 10.2351 0.875244 9.99902C0.875244 9.76291 0.955105 9.56499 1.11483 9.40527C1.27455 9.24555 1.47247 9.16569 1.70858 9.16569H2.54191C2.73636 7.42958 3.45511 5.94 4.69816 4.69694C5.94122 3.45388 7.4308 2.73513 9.16691 2.54069V1.70736C9.16691 1.47125 9.24677 1.27333 9.40649 1.11361C9.56622 0.953885 9.76413 0.874023 10.0002 0.874023C10.2364 0.874023 10.4343 0.953885 10.594 1.11361C10.7537 1.27333 10.8336 1.47125 10.8336 1.70736V2.54069C12.5697 2.73513 14.0593 3.45388 15.3023 4.69694C16.5454 5.94 17.2641 7.42958 17.4586 9.16569H18.2919C18.528 9.16569 18.7259 9.24555 18.8857 9.40527C19.0454 9.56499 19.1252 9.76291 19.1252 9.99902C19.1252 10.2351 19.0454 10.4331 18.8857 10.5928C18.7259 10.7525 18.528 10.8324 18.2919 10.8324H17.4586C17.2641 12.5685 16.5454 14.0581 15.3023 15.3011C14.0593 16.5442 12.5697 17.2629 10.8336 17.4574V18.2907C10.8336 18.5268 10.7537 18.7247 10.594 18.8844C10.4343 19.0442 10.2364 19.124 10.0002 19.124ZM10.0002 15.8324C11.6114 15.8324 12.9864 15.2629 14.1252 14.124C15.2641 12.9851 15.8336 11.6101 15.8336 9.99902C15.8336 8.38791 15.2641 7.01291 14.1252 5.87402C12.9864 4.73513 11.6114 4.16569 10.0002 4.16569C8.38913 4.16569 7.01413 4.73513 5.87524 5.87402C4.73635 7.01291 4.16691 8.38791 4.16691 9.99902C4.16691 11.6101 4.73635 12.9851 5.87524 14.124C7.01413 15.2629 8.38913 15.8324 10.0002 15.8324ZM10.0002 13.3324C9.08358 13.3324 8.29885 13.006 7.64608 12.3532C6.9933 11.7004 6.66691 10.9157 6.66691 9.99902C6.66691 9.08236 6.9933 8.29763 7.64608 7.64486C8.29885 6.99208 9.08358 6.66569 10.0002 6.66569C10.9169 6.66569 11.7016 6.99208 12.3544 7.64486C13.0072 8.29763 13.3336 9.08236 13.3336 9.99902C13.3336 10.9157 13.0072 11.7004 12.3544 12.3532C11.7016 13.006 10.9169 13.3324 10.0002 13.3324ZM10.0002 11.6657C10.4586 11.6657 10.8509 11.5025 11.1773 11.1761C11.5037 10.8497 11.6669 10.4574 11.6669 9.99902C11.6669 9.54069 11.5037 9.14833 11.1773 8.82194C10.8509 8.49555 10.4586 8.33236 10.0002 8.33236C9.54191 8.33236 9.14955 8.49555 8.82316 8.82194C8.49677 9.14833 8.33358 9.54069 8.33358 9.99902C8.33358 10.4574 8.49677 10.8497 8.82316 11.1761C9.14955 11.5025 9.54191 11.6657 10.0002 11.6657Z" fill="#4464D9"/>
</g>
</svg>
