<svg width="20" height="20" viewBox="0 0 20 20" fill="none" xmlns="http://www.w3.org/2000/svg">
<mask id="mask0_33_1457" style="mask-type:alpha" maskUnits="userSpaceOnUse" x="0" y="0" width="20" height="20">
<rect width="20" height="20" fill="#D9D9D9"/>
</mask>
<g mask="url(#mask0_33_1457)">
<path d="M9.99998 12.5002C10.6944 12.5002 11.2847 12.2571 11.7708 11.771C12.2569 11.2849 12.5 10.6946 12.5 10.0002C12.5 9.30572 12.2569 8.71544 11.7708 8.22933C11.2847 7.74322 10.6944 7.50016 9.99998 7.50016C9.30554 7.50016 8.71526 7.74322 8.22915 8.22933C7.74304 8.71544 7.49998 9.30572 7.49998 10.0002C7.49998 10.6946 7.74304 11.2849 8.22915 11.771C8.71526 12.2571 9.30554 12.5002 9.99998 12.5002ZM9.99998 14.1668C8.8472 14.1668 7.8647 13.7604 7.05248 12.9477C6.2397 12.1354 5.83331 11.1529 5.83331 10.0002C5.83331 8.84739 6.2397 7.86461 7.05248 7.05183C7.8647 6.23961 8.8472 5.8335 9.99998 5.8335C11.1528 5.8335 12.1355 6.23961 12.9483 7.05183C13.7605 7.86461 14.1666 8.84739 14.1666 10.0002C14.1666 11.1529 13.7605 12.1354 12.9483 12.9477C12.1355 13.7604 11.1528 14.1668 9.99998 14.1668ZM1.66665 10.8335C1.43054 10.8335 1.23276 10.7535 1.07331 10.5935C0.913313 10.4341 0.833313 10.2363 0.833313 10.0002C0.833313 9.76405 0.913313 9.566 1.07331 9.406C1.23276 9.24655 1.43054 9.16683 1.66665 9.16683H3.33331C3.56942 9.16683 3.76748 9.24655 3.92748 9.406C4.08692 9.566 4.16665 9.76405 4.16665 10.0002C4.16665 10.2363 4.08692 10.4341 3.92748 10.5935C3.76748 10.7535 3.56942 10.8335 3.33331 10.8335H1.66665ZM16.6666 10.8335C16.4305 10.8335 16.2328 10.7535 16.0733 10.5935C15.9133 10.4341 15.8333 10.2363 15.8333 10.0002C15.8333 9.76405 15.9133 9.566 16.0733 9.406C16.2328 9.24655 16.4305 9.16683 16.6666 9.16683H18.3333C18.5694 9.16683 18.7672 9.24655 18.9266 9.406C19.0866 9.566 19.1666 9.76405 19.1666 10.0002C19.1666 10.2363 19.0866 10.4341 18.9266 10.5935C18.7672 10.7535 18.5694 10.8335 18.3333 10.8335H16.6666ZM9.99998 4.16683C9.76387 4.16683 9.56609 4.08683 9.40665 3.92683C9.24665 3.76739 9.16665 3.56961 9.16665 3.3335V1.66683C9.16665 1.43072 9.24665 1.23266 9.40665 1.07266C9.56609 0.913218 9.76387 0.833496 9.99998 0.833496C10.2361 0.833496 10.4341 0.913218 10.5941 1.07266C10.7536 1.23266 10.8333 1.43072 10.8333 1.66683V3.3335C10.8333 3.56961 10.7536 3.76739 10.5941 3.92683C10.4341 4.08683 10.2361 4.16683 9.99998 4.16683ZM9.99998 19.1668C9.76387 19.1668 9.56609 19.0868 9.40665 18.9268C9.24665 18.7674 9.16665 18.5696 9.16665 18.3335V16.6668C9.16665 16.4307 9.24665 16.2329 9.40665 16.0735C9.56609 15.9135 9.76387 15.8335 9.99998 15.8335C10.2361 15.8335 10.4341 15.9135 10.5941 16.0735C10.7536 16.2329 10.8333 16.4307 10.8333 16.6668V18.3335C10.8333 18.5696 10.7536 18.7674 10.5941 18.9268C10.4341 19.0868 10.2361 19.1668 9.99998 19.1668ZM4.70831 5.87516L3.81248 5.00016C3.64581 4.84739 3.56581 4.65294 3.57248 4.41683C3.5797 4.18072 3.6597 3.97933 3.81248 3.81266C3.97915 3.646 4.18054 3.56266 4.41665 3.56266C4.65276 3.56266 4.8472 3.646 4.99998 3.81266L5.87498 4.7085C6.02776 4.87516 6.10415 5.06961 6.10415 5.29183C6.10415 5.51405 6.02776 5.7085 5.87498 5.87516C5.7222 6.04183 5.53137 6.12155 5.30248 6.11433C5.07304 6.10766 4.87498 6.02794 4.70831 5.87516ZM15 16.1877L14.125 15.2918C13.9722 15.1252 13.8958 14.9274 13.8958 14.6985C13.8958 14.4691 13.9722 14.2779 14.125 14.1252C14.2778 13.9585 14.4689 13.8788 14.6983 13.886C14.9272 13.8927 15.125 13.9724 15.2916 14.1252L16.1875 15.0002C16.3541 15.1529 16.4341 15.3474 16.4275 15.5835C16.4203 15.8196 16.3403 16.021 16.1875 16.1877C16.0208 16.3543 15.8194 16.4377 15.5833 16.4377C15.3472 16.4377 15.1528 16.3543 15 16.1877ZM14.125 5.87516C13.9583 5.72239 13.8786 5.53127 13.8858 5.30183C13.8925 5.07294 13.9722 4.87516 14.125 4.7085L15 3.81266C15.1528 3.646 15.3472 3.566 15.5833 3.57266C15.8194 3.57989 16.0208 3.65988 16.1875 3.81266C16.3541 3.97933 16.4375 4.18072 16.4375 4.41683C16.4375 4.65294 16.3541 4.84739 16.1875 5.00016L15.2916 5.87516C15.125 6.02794 14.9305 6.10433 14.7083 6.10433C14.4861 6.10433 14.2916 6.02794 14.125 5.87516ZM3.81248 16.1877C3.64581 16.021 3.56248 15.8196 3.56248 15.5835C3.56248 15.3474 3.64581 15.1529 3.81248 15.0002L4.70831 14.1252C4.87498 13.9724 5.07304 13.896 5.30248 13.896C5.53137 13.896 5.7222 13.9724 5.87498 14.1252C6.04165 14.2779 6.12165 14.4691 6.11498 14.6985C6.10776 14.9274 6.02776 15.1252 5.87498 15.2918L4.99998 16.1877C4.8472 16.3543 4.65276 16.4341 4.41665 16.4268C4.18054 16.4202 3.97915 16.3404 3.81248 16.1877Z" fill="#78879A"/>
</g>
</svg>
