<svg width="25" height="24" viewBox="0 0 25 24" fill="none" xmlns="http://www.w3.org/2000/svg">
<path d="M12.895 2.91016C9.585 2.91016 6.895 5.60016 6.895 8.91016V11.8002C6.895 12.4102 6.635 13.3402 6.325 13.8602L5.175 15.7702C4.465 16.9502 4.955 18.2602 6.255 18.7002C10.565 20.1402 15.215 20.1402 19.525 18.7002C20.735 18.3002 21.265 16.8702 20.605 15.7702L19.455 13.8602C19.155 13.3402 18.895 12.4102 18.895 11.8002V8.91016C18.895 5.61016 16.195 2.91016 12.895 2.91016Z" stroke="#66708F" stroke-width="1.5" stroke-miterlimit="10" stroke-linecap="round"/>
<path d="M14.745 3.19994C14.435 3.10994 14.115 3.03994 13.785 2.99994C12.825 2.87994 11.905 2.94994 11.045 3.19994C11.335 2.45994 12.055 1.93994 12.895 1.93994C13.735 1.93994 14.455 2.45994 14.745 3.19994Z" stroke="#66708F" stroke-width="1.5" stroke-miterlimit="10" stroke-linecap="round" stroke-linejoin="round"/>
<path d="M15.895 19.0601C15.895 20.7101 14.545 22.0601 12.895 22.0601C12.075 22.0601 11.315 21.7201 10.775 21.1801C10.235 20.6401 9.895 19.8801 9.895 19.0601" stroke="#66708F" stroke-width="1.5" stroke-miterlimit="10"/>
</svg>
