<svg width="14" height="14" viewBox="0 0 14 14" fill="none" xmlns="http://www.w3.org/2000/svg">
<path d="M6.99992 13.6668C6.0777 13.6668 5.21103 13.4918 4.39992 13.1418C3.58881 12.7918 2.88325 12.3168 2.28325 11.7168C1.68325 11.1168 1.20825 10.4113 0.858252 9.60016C0.508252 8.78905 0.333252 7.92238 0.333252 7.00016C0.333252 6.07794 0.508252 5.21127 0.858252 4.40016C1.20825 3.58905 1.68325 2.8835 2.28325 2.2835C2.88325 1.6835 3.58881 1.2085 4.39992 0.858496C5.21103 0.508496 6.0777 0.333496 6.99992 0.333496C7.92214 0.333496 8.78881 0.508496 9.59992 0.858496C10.411 1.2085 11.1166 1.6835 11.7166 2.2835C12.3166 2.8835 12.7916 3.58905 13.1416 4.40016C13.4916 5.21127 13.6666 6.07794 13.6666 7.00016C13.6666 7.30016 13.6499 7.59461 13.6166 7.8835C13.5833 8.17238 13.5277 8.45572 13.4499 8.7335C13.2944 8.55572 13.1138 8.40572 12.9083 8.2835C12.7027 8.16127 12.4777 8.07794 12.2333 8.0335C12.2666 7.86683 12.2916 7.69738 12.3083 7.52516C12.3249 7.35294 12.3333 7.17794 12.3333 7.00016C12.3333 5.51127 11.8166 4.25016 10.7833 3.21683C9.74992 2.1835 8.48881 1.66683 6.99992 1.66683C5.51103 1.66683 4.24992 2.1835 3.21659 3.21683C2.18325 4.25016 1.66659 5.51127 1.66659 7.00016C1.66659 8.48905 2.18325 9.75016 3.21659 10.7835C4.24992 11.8168 5.51103 12.3335 6.99992 12.3335C7.56659 12.3335 8.10825 12.2502 8.62492 12.0835C9.14158 11.9168 9.61658 11.6835 10.0499 11.3835C10.1833 11.5724 10.3471 11.7391 10.5416 11.8835C10.736 12.0279 10.9444 12.1391 11.1666 12.2168C10.5999 12.6724 9.96381 13.0279 9.25825 13.2835C8.5527 13.5391 7.79992 13.6668 6.99992 13.6668ZM11.8333 11.0002C11.5999 11.0002 11.4027 10.9196 11.2416 10.7585C11.0805 10.5974 10.9999 10.4002 10.9999 10.1668C10.9999 9.9335 11.0805 9.73627 11.2416 9.57516C11.4027 9.41405 11.5999 9.3335 11.8333 9.3335C12.0666 9.3335 12.2638 9.41405 12.4249 9.57516C12.586 9.73627 12.6666 9.9335 12.6666 10.1668C12.6666 10.4002 12.586 10.5974 12.4249 10.7585C12.2638 10.9196 12.0666 11.0002 11.8333 11.0002ZM7.66658 6.7335L9.66658 8.7335C9.78881 8.85572 9.84992 9.01127 9.84992 9.20016C9.84992 9.38905 9.78881 9.54461 9.66658 9.66683C9.54436 9.78905 9.38881 9.85016 9.19992 9.85016C9.01103 9.85016 8.85547 9.78905 8.73325 9.66683L6.53325 7.46683C6.46659 7.40016 6.41658 7.32516 6.38325 7.24183C6.34992 7.1585 6.33325 7.07238 6.33325 6.9835V4.3335C6.33325 4.14461 6.39714 3.98627 6.52492 3.8585C6.6527 3.73072 6.81103 3.66683 6.99992 3.66683C7.18881 3.66683 7.34714 3.73072 7.47492 3.8585C7.6027 3.98627 7.66658 4.14461 7.66658 4.3335V6.7335Z" fill="#172331"/>
</svg>
