<svg width="40" height="40" viewBox="0 0 40 40" fill="none" xmlns="http://www.w3.org/2000/svg">
<circle cx="20" cy="20" r="20" fill="#F7F7FF"/>
<mask id="mask0_33_2517" style="mask-type:alpha" maskUnits="userSpaceOnUse" x="8" y="8" width="24" height="24">
<rect x="8" y="8" width="24" height="24" fill="#D9D9D9"/>
</mask>
<g mask="url(#mask0_33_2517)">
<path d="M21.8751 30H18.1251C17.8751 30 17.6584 29.9167 17.4751 29.75C17.2918 29.5833 17.1834 29.375 17.1501 29.125L16.8501 26.8C16.6334 26.7167 16.4294 26.6167 16.2381 26.5C16.0461 26.3833 15.8584 26.2583 15.6751 26.125L13.5001 27.025C13.2668 27.1083 13.0334 27.1167 12.8001 27.05C12.5668 26.9833 12.3834 26.8417 12.2501 26.625L10.4001 23.4C10.2668 23.1833 10.2251 22.95 10.2751 22.7C10.3251 22.45 10.4501 22.25 10.6501 22.1L12.5251 20.675C12.5084 20.5583 12.5001 20.4457 12.5001 20.337V19.662C12.5001 19.554 12.5084 19.4417 12.5251 19.325L10.6501 17.9C10.4501 17.75 10.3251 17.55 10.2751 17.3C10.2251 17.05 10.2668 16.8167 10.4001 16.6L12.2501 13.375C12.3668 13.1417 12.5458 12.9957 12.7871 12.937C13.0291 12.879 13.2668 12.8917 13.5001 12.975L15.6751 13.875C15.8584 13.7417 16.0501 13.6167 16.2501 13.5C16.4501 13.3833 16.6501 13.2833 16.8501 13.2L17.1501 10.875C17.1834 10.625 17.2918 10.4167 17.4751 10.25C17.6584 10.0833 17.8751 10 18.1251 10H21.8751C22.1251 10 22.3418 10.0833 22.5251 10.25C22.7084 10.4167 22.8168 10.625 22.8501 10.875L23.1501 13.2C23.3668 13.2833 23.5711 13.3833 23.7631 13.5C23.9544 13.6167 24.1418 13.7417 24.3251 13.875L26.5001 12.975C26.7334 12.8917 26.9668 12.8833 27.2001 12.95C27.4334 13.0167 27.6168 13.1583 27.7501 13.375L29.6001 16.6C29.7334 16.8167 29.7751 17.05 29.7251 17.3C29.6751 17.55 29.5501 17.75 29.3501 17.9L27.4751 19.325C27.4918 19.4417 27.5001 19.554 27.5001 19.662V20.337C27.5001 20.4457 27.4834 20.5583 27.4501 20.675L29.3251 22.1C29.5251 22.25 29.6501 22.45 29.7001 22.7C29.7501 22.95 29.7084 23.1833 29.5751 23.4L27.7251 26.6C27.5918 26.8167 27.4044 26.9627 27.1631 27.038C26.9211 27.1127 26.6834 27.1083 26.4501 27.025L24.3251 26.125C24.1418 26.2583 23.9501 26.3833 23.7501 26.5C23.5501 26.6167 23.3501 26.7167 23.1501 26.8L22.8501 29.125C22.8168 29.375 22.7084 29.5833 22.5251 29.75C22.3418 29.9167 22.1251 30 21.8751 30ZM20.0501 23.5C21.0168 23.5 21.8418 23.1583 22.5251 22.475C23.2084 21.7917 23.5501 20.9667 23.5501 20C23.5501 19.0333 23.2084 18.2083 22.5251 17.525C21.8418 16.8417 21.0168 16.5 20.0501 16.5C19.0668 16.5 18.2374 16.8417 17.5621 17.525C16.8874 18.2083 16.5501 19.0333 16.5501 20C16.5501 20.9667 16.8874 21.7917 17.5621 22.475C18.2374 23.1583 19.0668 23.5 20.0501 23.5Z" fill="#172B85"/>
</g>
</svg>
