<svg width="14" height="14" viewBox="0 0 14 14" fill="none" xmlns="http://www.w3.org/2000/svg">
<path d="M13.7482 7.56791C13.6379 8.85111 13.1633 10.0761 12.3804 11.0987C11.5974 12.1214 10.5387 12.8992 9.32879 13.3405C8.11884 13.7819 6.80801 13.8686 5.5505 13.5903C4.29299 13.312 3.14112 12.6803 2.23041 11.7696C1.31971 10.8589 0.688044 9.70701 0.409743 8.4495C0.131442 7.19199 0.21808 5.88116 0.659465 4.67121C1.10085 3.46127 1.87862 2.40256 2.90126 1.61963C3.92391 0.836708 5.14889 0.362141 6.43209 0.251765C6.50032 0.246137 6.56898 0.254001 6.63417 0.274909C6.69935 0.295817 6.75978 0.32936 6.812 0.373622C6.86422 0.417884 6.90722 0.471998 6.93853 0.532876C6.96983 0.593753 6.98884 0.6602 6.99447 0.728425C7.0001 0.796649 6.99224 0.865314 6.97133 0.930499C6.95042 0.995684 6.91688 1.05611 6.87262 1.10833C6.82835 1.16056 6.77424 1.20355 6.71336 1.23486C6.65249 1.26617 6.58604 1.28518 6.51781 1.29081C5.43175 1.38412 4.39493 1.78569 3.52934 2.44827C2.66376 3.11085 2.00543 4.00687 1.63181 5.03091C1.25819 6.05495 1.18482 7.1644 1.42034 8.22872C1.65586 9.29304 2.19046 10.2679 2.96126 11.0387C3.73205 11.8095 4.70696 12.3441 5.77128 12.5797C6.8356 12.8152 7.94505 12.7418 8.96909 12.3682C9.99312 11.9946 10.8891 11.3362 11.5517 10.4707C12.2143 9.60507 12.6159 8.56825 12.7092 7.48219C12.7206 7.3444 12.7862 7.21677 12.8917 7.12738C12.9971 7.03799 13.1338 6.99416 13.2716 7.00553C13.4094 7.01689 13.537 7.08253 13.6264 7.188C13.7158 7.29346 13.7596 7.43012 13.7482 7.56791ZM6.47495 3.36889V7.00553C6.47495 7.14331 6.52969 7.27545 6.62712 7.37288C6.72455 7.47031 6.85669 7.52505 6.99447 7.52505H10.6311C10.7689 7.52505 10.901 7.47031 10.9985 7.37288C11.0959 7.27545 11.1506 7.14331 11.1506 7.00553C11.1506 6.86774 11.0959 6.7356 10.9985 6.63817C10.901 6.54074 10.7689 6.48601 10.6311 6.48601H7.51399V3.36889C7.51399 3.2311 7.45926 3.09896 7.36183 3.00153C7.2644 2.9041 7.13226 2.84937 6.99447 2.84937C6.85669 2.84937 6.72455 2.9041 6.62712 3.00153C6.52969 3.09896 6.47495 3.2311 6.47495 3.36889ZM9.07255 1.81033C9.22668 1.81033 9.37735 1.76462 9.5055 1.67899C9.63365 1.59336 9.73353 1.47166 9.79251 1.32926C9.8515 1.18687 9.86693 1.03018 9.83686 0.879015C9.80679 0.72785 9.73257 0.588995 9.62359 0.480011C9.5146 0.371027 9.37575 0.296807 9.22458 0.266739C9.07342 0.23667 8.91673 0.252102 8.77434 0.311084C8.63194 0.370066 8.51023 0.469948 8.42461 0.5981C8.33898 0.726252 8.29327 0.876918 8.29327 1.03105C8.29327 1.23772 8.37538 1.43594 8.52152 1.58208C8.66766 1.72822 8.86588 1.81033 9.07255 1.81033ZM11.4104 3.36889C11.5645 3.36889 11.7152 3.32318 11.8433 3.23755C11.9715 3.15193 12.0714 3.03022 12.1304 2.88782C12.1893 2.74543 12.2048 2.58874 12.1747 2.43758C12.1446 2.28641 12.0704 2.14756 11.9614 2.03857C11.8524 1.92959 11.7136 1.85537 11.5624 1.8253C11.4113 1.79523 11.2546 1.81066 11.1122 1.86964C10.9698 1.92863 10.8481 2.02851 10.7624 2.15666C10.6768 2.28481 10.6311 2.43548 10.6311 2.58961C10.6311 2.79628 10.7132 2.9945 10.8594 3.14064C11.0055 3.28678 11.2037 3.36889 11.4104 3.36889ZM12.969 5.70673C13.1231 5.70673 13.2737 5.66102 13.4019 5.57539C13.5301 5.48977 13.6299 5.36806 13.6889 5.22566C13.7479 5.08327 13.7633 4.92658 13.7333 4.77542C13.7032 4.62425 13.629 4.4854 13.52 4.37641C13.411 4.26743 13.2722 4.19321 13.121 4.16314C12.9698 4.13307 12.8131 4.1485 12.6707 4.20749C12.5283 4.26647 12.4066 4.36635 12.321 4.4945C12.2354 4.62265 12.1897 4.77332 12.1897 4.92745C12.1897 5.13412 12.2718 5.33234 12.4179 5.47848C12.5641 5.62462 12.7623 5.70673 12.969 5.70673Z" fill="#170F0B"/>
</svg>
