<svg width="20" height="20" viewBox="0 0 20 20" fill="none" xmlns="http://www.w3.org/2000/svg">
<path d="M9.08508 2.07381C9.43588 1.27866 10.5641 1.27866 10.9149 2.07381L12.5101 5.68952C12.6553 6.01861 12.966 6.24437 13.3238 6.28075L17.2555 6.68053C18.1202 6.76845 18.4688 7.84147 17.821 8.42081L14.8752 11.0552C14.6071 11.295 14.4884 11.6603 14.5643 12.0119L15.3991 15.8746C15.5827 16.7241 14.6699 17.3873 13.9187 16.9502L10.5029 14.9626C10.192 14.7817 9.80796 14.7817 9.49707 14.9626L6.08129 16.9502C5.33011 17.3873 4.41735 16.7241 4.60092 15.8746L5.43566 12.0119C5.51163 11.6603 5.39295 11.295 5.12483 11.0552L2.17902 8.42081C1.53119 7.84147 1.87984 6.76845 2.74447 6.68053L6.67615 6.28075C7.034 6.24437 7.34473 6.01861 7.48991 5.68952L9.08508 2.07381Z" fill="#EFCC4F"/>
</svg>
