<svg width="20" height="20" viewBox="0 0 20 20" fill="none" xmlns="http://www.w3.org/2000/svg">
<path d="M10.0002 16.3202L5.15854 19.2369C4.94465 19.373 4.72104 19.4314 4.4877 19.4119C4.25437 19.3925 4.0502 19.3147 3.8752 19.1786C3.7002 19.0425 3.56409 18.8725 3.46687 18.6687C3.36965 18.4642 3.3502 18.2355 3.40854 17.9827L4.69187 12.4702L0.404371 8.76608C0.209926 8.59108 0.0885931 8.39158 0.0403709 8.16758C-0.00862911 7.94436 0.0057597 7.7258 0.0835375 7.51191C0.161315 7.29802 0.277982 7.12302 0.433537 6.98691C0.589093 6.8508 0.802982 6.7633 1.0752 6.72441L6.73354 6.22858L8.92104 1.03691C9.01826 0.803581 9.16915 0.628581 9.3737 0.511914C9.57748 0.395247 9.78631 0.336914 10.0002 0.336914C10.2141 0.336914 10.4233 0.395247 10.6279 0.511914C10.8316 0.628581 10.9821 0.803581 11.0794 1.03691L13.2669 6.22858L18.9252 6.72441C19.1974 6.7633 19.4113 6.8508 19.5669 6.98691C19.7224 7.12302 19.8391 7.29802 19.9169 7.51191C19.9946 7.7258 20.0094 7.94436 19.9612 8.16758C19.9122 8.39158 19.7905 8.59108 19.596 8.76608L15.3085 12.4702L16.5919 17.9827C16.6502 18.2355 16.6308 18.4642 16.5335 18.6687C16.4363 18.8725 16.3002 19.0425 16.1252 19.1786C15.9502 19.3147 15.746 19.3925 15.5127 19.4119C15.2794 19.4314 15.0558 19.373 14.8419 19.2369L10.0002 16.3202Z" fill="#F4B334"/>
</svg>
